<?xml version="1.0" encoding="UTF-8"?>
<svg id="Layer_2" data-name="Layer 2" xmlns="http://www.w3.org/2000/svg" viewBox="0 0 618.52 619.43">
  <defs>
    <style>
      .cls-1 {
        fill: #e51b23;
      }
    </style>
  </defs>
  <g id="Capa_1" data-name="Capa 1">
    <g>
      <path class="cls-1" d="M467.22,0l8.5,5.42,138.57,139.79c3.39,2.48,2,6.79,4.21,9.71-.04.4.06.82,0,1.21-2.36,16.12-17.38,23.57-30.83,13.28-3.63-2.77-6.73-9.41-11.53-7.95-24.37,13.21-46.36,30.39-68.37,46.75l-98.59-97.47c9.68-11.74,19.02-23.94,27.56-36.53,4.38-6.46,18.84-26.95,20.32-33.06.21-.86.61-1.56-.06-2.39-15.21-11.27-19-29.95.54-38.76h9.68Z"/>
      <path class="cls-1" d="M367.19,261.85c-22.79,21.81-22.11,58.45.77,80.06l-26.17,25.94c-21.26-19.28-51.77-23.83-74.9-4.79-26.88,22.14-25.17,57.85-3.08,82.77l-25.94,26.17c-54.42-51.92-128.87,22.68-76.87,76.87-7.48,5.13-18.44,21.65-25.4,25.42-1.05.57-2.36,1.07-3.47.44l-88.48-90L384.93,140.93l93.09,91.88-33.19,32.22c-20.26-22.05-55.75-24.13-77.64-3.19Z"/>
      <path class="cls-1" d="M221.54,556.75c10.1-3.8,20.47-14.22,24.22-24.22,9.41,3.12,15.16,21.54,27.28,14.59l72.62-72.69c.81-.91.48-1.47,0-2.4-1.6-3.12-18.84-17.4-18.81-18.77,10.49-6.69,18.9-15.24,24.18-26.64l21.19,21.18,71.09-71.69c5.13-11.04-8.52-15.88-13.64-23.26-.87-1.25-1.81-1.29-.61-3.1.41-.62,8.72-5.29,10.96-7.2,5.76-4.9,9.34-10.67,13.31-16.98,12.2,9.25,25.55,23.42,27.19,39.35,2.28,22.11-6.85,32.21-20.53,47.22-50.13,55-108.89,105.1-159.77,159.74-24.06,23.08-59.73,13.64-77.49-12.1-.7-1.02-1.69-1.19-1.19-3.03Z"/>
      <path class="cls-1" d="M22.45,515.6l79.92,82.31c-14.96,7.37-30,30.76-47.88,17.55-9.27-6.85-42.99-40.84-50.22-50.23-13.89-18.03,9.82-35.03,18.18-49.63Z"/>
      <path class="cls-1" d="M402.09,275.72c38.71-3.67,37.34,59.22-3.31,50.81-29.15-6.03-25.89-48.04,3.31-50.81Z"/>
      <path class="cls-1" d="M293.99,379.7c10.94-2.25,21.34,1.27,28.08,10.12,9.85,12.93,4.28,36.6-12.89,40.1-39.91,8.14-44.3-44.23-15.2-50.22Z"/>
      <path class="cls-1" d="M189.54,483.81c43.79-8.92,45.22,54.21,4.96,50.74-28.41-2.45-30.14-45.61-4.96-50.74Z"/>
    </g>
  </g>
</svg>