<?xml version="1.0" encoding="UTF-8"?>
<svg id="Layer_2" data-name="Layer 2" xmlns="http://www.w3.org/2000/svg" viewBox="0 0 805.75 264.67">
  <defs>
    <style>
      .cls-1 {
        fill: #fff;
      }

      .cls-2 {
        fill: #e51b23;
      }
    </style>
  </defs>
  <g id="Capa_1" data-name="Capa 1">
    <g>
      <path class="cls-1" d="M620.15,258.63l-18.63-27.48,18.01-26.5c.46-.67.73-1.48.82-2.41.09-.96-.12-1.82-.63-2.57-.51-.75-1.14-1.13-1.89-1.13s-1.39.4-1.93,1.2l-17.83,26.38-17.88-26.45c-.54-.8-1.19-1.2-1.93-1.2s-1.33.38-1.83,1.12c-.51.69-.76,1.52-.74,2.44.02.91.26,1.72.73,2.41l18.11,26.78-18.53,27.48c-.43.63-.68,1.43-.75,2.38-.07.98.15,1.84.66,2.53.48.7,1.08,1.06,1.79,1.06.77,0,1.44-.4,1.98-1.2l18.36-27.15,18.45,27.29c.6.88,1.33,1.06,1.84,1.06.74,0,1.38-.38,1.88-1.12.51-.7.74-1.55.69-2.53-.05-.95-.3-1.76-.73-2.39Z"/>
      <g>
        <path class="cls-1" d="M87.25,207.37c-1.31-2.79-3.06-5.23-5.2-7.28-2.15-2.04-4.67-3.68-7.5-4.88-2.84-1.2-5.91-1.8-9.11-1.8-2.17,0-4.32.29-6.39.86-2.07.57-4.05,1.41-5.87,2.48-1.82,1.07-3.51,2.35-5.01,3.82-1.31,1.28-2.47,2.69-3.46,4.22-.95-1.52-2.08-2.94-3.37-4.21-1.48-1.47-3.13-2.75-4.9-3.82-1.78-1.07-3.72-1.91-5.76-2.48-2.05-.57-4.21-.86-6.43-.86-3.16,0-6.23.62-9.15,1.84-2.91,1.22-5.51,2.92-7.72,5.06-2.22,2.14-4.02,4.66-5.35,7.5-1.33,2.85-2.01,5.94-2.01,9.18v42.92c0,1.07.38,1.97,1.14,2.68.75.7,1.63,1.05,2.63,1.05s1.8-.36,2.5-1.07c.7-.71,1.05-1.6,1.05-2.67v-43.05c.05-2.12.53-4.18,1.44-6.12.92-1.94,2.17-3.67,3.71-5.14,1.55-1.47,3.35-2.65,5.35-3.5,3.9-1.67,8.57-1.71,12.65-.07,2,.81,3.8,1.93,5.35,3.32,1.55,1.4,2.81,3.08,3.74,4.99.93,1.91,1.43,4,1.48,6.21v43.36c0,1.07.38,1.97,1.14,2.68.75.7,1.61,1.05,2.56,1.05s1.81-.36,2.53-1.06c.73-.71,1.1-1.61,1.1-2.67v-42.62c0-2.17.45-4.28,1.34-6.26.89-1.99,2.13-3.75,3.68-5.25,1.55-1.49,3.38-2.71,5.42-3.61,3.95-1.74,8.52-1.8,12.64-.14,2,.81,3.8,1.93,5.35,3.32,1.55,1.4,2.83,3.08,3.82,5,.98,1.91,1.5,4,1.55,6.2v43.36c0,1.07.38,1.97,1.14,2.68.75.7,1.63,1.05,2.64,1.05s1.8-.36,2.5-1.07c.7-.71,1.05-1.6,1.05-2.67v-43.07c0-.26-.02-.46-.08-.62-.16-3.1-.89-6.08-2.19-8.85Z"/>
        <path class="cls-1" d="M165.09,194.3c-1.11,0-2.03.37-2.73,1.11-.7.73-1.05,1.64-1.05,2.7v31.97c0,3.65-.59,7.17-1.75,10.45-1.16,3.28-2.82,6.19-4.93,8.66-2.1,2.46-4.68,4.43-7.66,5.86-2.97,1.43-6.33,2.16-9.97,2.16s-6.98-.73-10.05-2.16c-3.08-1.44-5.79-3.39-8.04-5.8-2.25-2.42-4.04-5.27-5.32-8.48-1.28-3.21-1.93-6.66-1.93-10.25v-32.41c0-1.12-.36-2.03-1.06-2.71-.7-.68-1.56-1.02-2.57-1.02s-1.88.34-2.6,1.02c-.73.68-1.11,1.6-1.11,2.72v32.48c0,4.65.83,9.09,2.47,13.19,1.64,4.11,3.95,7.74,6.87,10.81,2.92,3.07,6.41,5.53,10.39,7.31,3.98,1.79,8.33,2.69,12.94,2.69s8.98-.91,12.84-2.69c3.86-1.78,7.22-4.26,9.99-7.36,2.77-3.09,4.96-6.76,6.5-10.89,1.54-4.13,2.32-8.58,2.32-13.22v-32.34c0-1.11-.34-2.03-1.01-2.73-.68-.71-1.53-1.07-2.55-1.07Z"/>
        <path class="cls-1" d="M222.78,231.02c-2.23-1.56-4.85-2.91-7.79-4.03-2.89-1.1-5.99-2.15-9.21-3.14-1.98-.58-3.9-1.22-5.72-1.9-1.8-.67-3.4-1.49-4.77-2.44-1.34-.94-2.42-2.06-3.21-3.34-.77-1.26-1.16-2.82-1.16-4.63,0-2.05.46-3.78,1.37-5.16.92-1.4,2.13-2.53,3.58-3.37,1.47-.85,3.15-1.47,4.98-1.85,1.85-.38,3.7-.58,5.5-.58,3.36,0,6.3.58,8.74,1.72,2.43,1.13,4.72,3.13,6.8,5.94l.07.1.11.05c1.57.8,2.81.44,3.86-.61.46-.47.75-1.08.87-1.82.11-.74-.03-1.5-.42-2.3-1.94-3.56-4.77-6.19-8.42-7.82-3.62-1.61-7.64-2.43-11.96-2.43-2.75,0-5.48.36-8.14,1.08-2.67.72-5.08,1.85-7.18,3.35-2.11,1.5-3.84,3.41-5.13,5.67-1.3,2.27-1.96,4.97-1.96,8.04,0,2.77.56,5.2,1.66,7.22,1.09,2.01,2.56,3.76,4.35,5.22,1.77,1.44,3.81,2.67,6.05,3.64,2.21.96,4.46,1.81,6.7,2.55h.02c2.75.79,5.4,1.62,7.87,2.5,2.45.87,4.65,1.89,6.53,3.04,1.85,1.14,3.35,2.44,4.45,3.88,1.07,1.4,1.61,3.06,1.61,4.95s-.44,3.6-1.32,5.16c-.88,1.57-2.1,2.94-3.61,4.07-1.53,1.14-3.29,2.04-5.24,2.68-1.95.64-4.02.97-6.14.97-4.17,0-7.83-.77-10.88-2.3-3.03-1.51-5.37-3.72-6.96-6.56l-.08-.11c-1.02-1.02-2.16-1.54-3.41-1.54s-2.2.53-2.83,1.56c-.63,1.03-.58,2.28.12,3.72,1.04,2.1,2.4,3.95,4.04,5.51,1.63,1.55,3.52,2.85,5.62,3.87,2.09,1.02,4.38,1.79,6.82,2.28,2.43.49,4.95.75,7.49.75,3.24,0,6.34-.52,9.19-1.54,2.86-1.02,5.39-2.43,7.54-4.2,2.15-1.77,3.87-3.9,5.11-6.33,1.24-2.44,1.88-5.12,1.88-7.98,0-3.06-.67-5.72-2-7.9-1.32-2.16-3.13-4.05-5.38-5.62Z"/>
        <path class="cls-1" d="M248.22,194.37c-1,0-1.88.36-2.61,1.06-.73.71-1.1,1.61-1.1,2.67v61.73c0,1.07.38,1.98,1.13,2.71.75.73,1.61,1.1,2.57,1.1,1.01,0,1.88-.37,2.58-1.11.69-.73,1.05-1.64,1.05-2.7v-61.73c0-1.06-.34-1.95-1.01-2.66-.68-.71-1.56-1.07-2.62-1.07Z"/>
        <path class="cls-1" d="M248.15,175.41c-1.25,0-2.34.46-3.26,1.36-.92.9-1.39,2.07-1.39,3.48,0,1.26.47,2.37,1.38,3.29.92.93,2.02,1.4,3.27,1.4,1.39,0,2.57-.47,3.49-1.4.92-.93,1.38-2.03,1.38-3.29,0-1.41-.47-2.58-1.39-3.48-.92-.9-2.09-1.36-3.48-1.36Z"/>
        <path class="cls-1" d="M274.82,217.92c1.43-3.36,3.4-6.33,5.87-8.85,2.47-2.51,5.38-4.54,8.66-6.03,3.27-1.48,6.83-2.23,10.57-2.23,3.42,0,6.73.58,9.84,1.73,3.1,1.15,5.95,2.92,8.47,5.27.41.37.88.7,1.4.98,1.33.74,2.91.61,4.14-.54.84-.73,1.26-1.65,1.26-2.73s-.44-2.05-1.31-2.92c-2.9-2.98-6.48-5.28-10.63-6.84-4.14-1.56-8.5-2.35-12.95-2.35-4.75,0-9.3.93-13.52,2.76-4.21,1.83-7.94,4.36-11.08,7.53-3.14,3.17-5.65,6.92-7.46,11.14-1.81,4.23-2.73,8.83-2.73,13.68,0,.17.04.35.11.54l-.08.26-.03.16c0,4.8.92,9.39,2.73,13.64,1.81,4.25,4.32,8.01,7.46,11.18,3.13,3.17,6.86,5.7,11.08,7.53,4.22,1.83,8.77,2.76,13.52,2.76,4.46,0,8.82-.84,12.96-2.5,4.15-1.66,7.72-4.01,10.62-6.98.87-.88,1.31-1.86,1.31-2.92s-.4-1.98-1.18-2.72c-1.25-1.16-2.81-1.31-4.19-.51-.53.31-1.01.65-1.44,1.03-2.56,2.44-5.45,4.27-8.6,5.44-3.15,1.17-6.51,1.77-9.98,1.77-3.79,0-7.37-.78-10.63-2.3-3.28-1.53-6.15-3.61-8.55-6.17-2.4-2.56-4.31-5.57-5.69-8.92-1.38-3.35-2.07-6.9-2.07-10.54,0-.12-.03-.23-.07-.34.05-.13.07-.23.07-.32,0-3.74.72-7.33,2.14-10.68Z"/>
        <path class="cls-1" d="M394.79,203.82c-3.16-3.19-6.92-5.75-11.19-7.6-4.26-1.86-8.89-2.8-13.74-2.8s-9.4.94-13.67,2.8c-4.26,1.85-8.04,4.41-11.22,7.6-3.18,3.19-5.73,7-7.57,11.33s-2.77,9.01-2.77,13.9.93,9.49,2.77,13.79,4.38,8.11,7.57,11.33c3.18,3.21,6.96,5.79,11.22,7.64,4.27,1.86,8.87,2.8,13.67,2.8s9.47-.94,13.74-2.8c4.26-1.85,8.03-4.43,11.19-7.64,3.16-3.21,5.68-7.03,7.49-11.33,1.81-4.31,2.73-8.94,2.73-13.79s-.92-9.57-2.73-13.9c-1.81-4.33-4.33-8.14-7.49-11.33ZM369.86,257.21c-3.89,0-7.57-.75-10.94-2.24-3.37-1.48-6.34-3.54-8.83-6.1-2.49-2.56-4.49-5.59-5.94-9-1.45-3.4-2.18-7.04-2.18-10.83s.73-7.59,2.18-11.01c1.45-3.43,3.45-6.45,5.94-8.99,2.49-2.54,5.47-4.57,8.87-6.03,3.39-1.46,7.06-2.2,10.9-2.2s7.64.74,11.01,2.2c3.37,1.46,6.34,3.49,8.83,6.03,2.49,2.54,4.48,5.56,5.9,8.99,1.42,3.43,2.15,7.13,2.15,11.02s-.72,7.43-2.14,10.83c-1.42,3.4-3.41,6.43-5.9,8.99-2.49,2.56-5.46,4.62-8.83,6.1-3.36,1.48-7.07,2.24-11.01,2.24Z"/>
        <path class="cls-1" d="M471.13,203.39c-2.8-3.05-6.17-5.5-10.02-7.28-3.86-1.79-8.18-2.69-12.84-2.69s-8.96.9-12.91,2.69c-3.95,1.78-7.43,4.23-10.35,7.27-2.92,3.04-5.23,6.67-6.87,10.78-1.64,4.11-2.47,8.55-2.47,13.19v32.63c0,1.07.38,1.97,1.14,2.68.75.7,1.63,1.05,2.63,1.05,1.12,0,2-.37,2.63-1.09.61-.7.92-1.59.92-2.64v-32.48c0-3.74.65-7.28,1.93-10.51,1.28-3.23,3.07-6.08,5.32-8.48,2.25-2.39,4.94-4.29,7.99-5.65,3.05-1.36,6.42-2.05,10.02-2.05s6.93.71,9.9,2.12c2.98,1.41,5.58,3.34,7.7,5.72,2.13,2.39,3.81,5.24,5,8.47,1.19,3.24,1.79,6.75,1.79,10.45v32.41c0,1.07.37,1.97,1.1,2.67.72.7,1.6,1.06,2.61,1.06,1.06,0,1.94-.36,2.62-1.07.67-.71,1.01-1.6,1.01-2.66v-32.63c0-4.64-.78-9.08-2.33-13.18-1.54-4.11-3.75-7.74-6.54-10.78Z"/>
        <path class="cls-1" d="M550.86,203.82c-3.16-3.19-6.91-5.75-11.15-7.6-4.24-1.86-8.85-2.8-13.7-2.8s-9.46.94-13.7,2.8c-4.24,1.85-8,4.42-11.18,7.64-3.18,3.21-5.73,7.01-7.57,11.29-1.84,4.28-2.77,8.93-2.77,13.83s.93,9.56,2.77,13.87,4.38,8.11,7.57,11.33c3.18,3.21,6.95,5.79,11.18,7.64,4.24,1.86,8.85,2.8,13.7,2.8,5.59,0,10.58-1.09,14.86-3.25,4.26-2.15,7.91-4.92,10.82-8.2.88-.84,1.3-1.77,1.25-2.78-.06-.97-.37-1.78-.9-2.36-.49-.66-1.03-1.11-1.63-1.35-.17-.05-.32-.1-.46-.13-.15-.03-.32-.05-.5-.05-.89,0-1.78.36-2.65,1.07l-.08.08c-1.13,1.47-2.48,2.82-4.02,3.98-1.54,1.17-3.24,2.19-5.04,3.03-1.8.84-3.71,1.48-5.68,1.91-1.97.43-3.98.65-5.97.65-3.61,0-7.05-.66-10.22-1.95-3.18-1.29-6.02-3.1-8.44-5.38-2.42-2.27-4.4-4.98-5.9-8.05-1.42-2.91-2.3-6.05-2.63-9.35h58.85c1.06,0,1.94-.36,2.59-1.08.64-.71.97-1.57.97-2.58,0-4.85-.94-9.47-2.81-13.76-1.86-4.28-4.41-8.06-7.56-11.25ZM553.72,226.05h-55.12c.29-3.39,1.15-6.61,2.57-9.57,1.5-3.12,3.49-5.87,5.94-8.19,2.44-2.32,5.32-4.17,8.54-5.48,3.23-1.32,6.74-1.98,10.44-1.98s7.14.67,10.37,1.98c3.23,1.32,6.13,3.16,8.62,5.45,2.49,2.3,4.52,5.05,6.04,8.19,1.44,2.98,2.32,6.21,2.6,9.61Z"/>
        <path class="cls-1" d="M643.21,175.41c-1.25,0-2.34.46-3.26,1.36-.92.9-1.39,2.07-1.39,3.48,0,1.26.47,2.37,1.38,3.29.92.93,2.02,1.4,3.27,1.4,1.39,0,2.57-.47,3.49-1.4.92-.93,1.38-2.03,1.38-3.29,0-1.41-.47-2.58-1.39-3.48-.92-.9-2.09-1.36-3.48-1.36Z"/>
        <path class="cls-1" d="M643.28,194.37c-1,0-1.88.36-2.61,1.06-.73.71-1.1,1.61-1.1,2.67v61.73c0,1.07.38,1.98,1.13,2.71.75.73,1.61,1.1,2.57,1.1,1.01,0,1.88-.37,2.58-1.11.69-.73,1.05-1.64,1.05-2.7v-61.73c0-1.06-.34-1.95-1.01-2.66-.68-.71-1.56-1.07-2.62-1.07Z"/>
        <path class="cls-1" d="M720.55,203.82c-3.16-3.19-6.92-5.75-11.19-7.6-4.26-1.86-8.89-2.8-13.74-2.8s-9.4.94-13.67,2.8c-4.26,1.85-8.04,4.41-11.22,7.6-3.18,3.19-5.73,7-7.57,11.33s-2.77,9.01-2.77,13.9.93,9.49,2.77,13.79,4.38,8.11,7.57,11.33c3.18,3.21,6.96,5.79,11.22,7.64,4.27,1.86,8.87,2.8,13.67,2.8s9.47-.94,13.74-2.8c4.26-1.85,8.03-4.43,11.19-7.64,3.16-3.21,5.68-7.03,7.49-11.33,1.81-4.31,2.73-8.94,2.73-13.79s-.92-9.57-2.73-13.9c-1.81-4.33-4.33-8.14-7.49-11.33ZM695.62,257.21c-3.89,0-7.57-.75-10.94-2.24-3.37-1.48-6.34-3.54-8.83-6.1-2.49-2.56-4.49-5.59-5.94-9-1.45-3.4-2.18-7.04-2.18-10.83s.73-7.59,2.18-11.01c1.45-3.43,3.45-6.45,5.94-8.99,2.49-2.54,5.47-4.57,8.87-6.03,3.39-1.46,7.06-2.2,10.9-2.2s7.64.74,11.01,2.2c3.37,1.46,6.34,3.49,8.83,6.03,2.49,2.54,4.48,5.56,5.9,8.99,1.42,3.43,2.15,7.13,2.15,11.02s-.72,7.43-2.14,10.83c-1.42,3.4-3.41,6.43-5.9,8.99-2.49,2.56-5.46,4.62-8.83,6.1-3.36,1.48-7.07,2.24-11.01,2.24Z"/>
        <path class="cls-1" d="M803.43,214.17c-1.54-4.11-3.75-7.74-6.54-10.78-2.8-3.05-6.17-5.5-10.02-7.28-3.86-1.79-8.18-2.69-12.84-2.69s-8.96.9-12.91,2.69c-3.95,1.78-7.43,4.23-10.35,7.27-2.92,3.04-5.23,6.67-6.87,10.78-1.64,4.11-2.47,8.55-2.47,13.19v32.63c0,1.07.38,1.97,1.14,2.68.75.7,1.63,1.05,2.63,1.05,1.12,0,2-.37,2.63-1.09.61-.7.92-1.59.92-2.64v-32.48c0-3.74.65-7.28,1.93-10.51,1.28-3.23,3.07-6.08,5.32-8.48,2.25-2.39,4.94-4.29,7.99-5.65,3.05-1.36,6.42-2.05,10.02-2.05s6.93.71,9.9,2.12c2.98,1.41,5.58,3.34,7.7,5.72,2.13,2.39,3.81,5.24,5,8.47,1.19,3.24,1.79,6.75,1.79,10.45v32.41c0,1.07.37,1.97,1.1,2.67.72.7,1.6,1.06,2.61,1.06,1.06,0,1.94-.36,2.62-1.07.67-.71,1.01-1.6,1.01-2.66v-32.63c0-4.64-.78-9.08-2.33-13.18Z"/>
      </g>
      <g>
        <path class="cls-2" d="M584.51,63.47v44.5c-.96,0-1.8,0-2.65,0-37.45.1-74.9.21-112.35.31-9.32.03-18.64,0-27.97.09-1.86.02-3.28-.35-4.06-2.17-.18-.43-.46-.9-.83-1.15-3.91-2.73-4.15-6.66-4.08-10.97.14-9.16-.08-18.32-.13-27.48,0-1.02.1-2.03.16-3.12h151.9ZM549.05,85.28c-.03-8.85-7.14-15.58-16.46-15.59-9.52,0-16.14,6.85-16.06,16.63.08,9.47,6.52,15.75,16.07,15.66,9.55-.09,16.49-7.13,16.45-16.71ZM493.43,101.75c9.51-.05,16.4-6.83,16.38-16.12-.02-8.87-7.28-16.07-16.16-16.02-8.76.05-15.82,7.4-15.79,16.43.04,9.28,6.45,15.75,15.57,15.7ZM439.75,86.01c-.11,8.8,6.37,15.49,15.15,15.64,9.64.16,16.58-6.47,16.74-15.99.14-8.05-7.4-15.98-15.24-16.06-9.72-.09-16.52,6.61-16.65,16.41Z"/>
        <path class="cls-2" d="M533.89,116.63c-1.4,4.34-2.64,8.34-4.01,12.3-.17.49-.97.88-1.55,1.06-.58.18-1.26.05-1.9.05-76.29,0-152.58-.01-228.86.06-2.37,0-3.6-.54-4.19-2.95-.87-3.52-2.1-6.95-3.23-10.61h47.04c.45,1.1.81,2.24,1.36,3.26,2.99,5.61,9.64,6.45,13.96,1.78.54-.58,1.17-1.18,1.44-1.89,1.18-3.15,3.47-3.58,6.57-3.55,18.81.15,37.63.09,56.44.04,1.68,0,2.67.4,3.63,1.92,3.99,6.28,13.04,6.17,16.96-.11,1.03-1.65,2.27-1.8,4.18-1.75,8.75.23,17.5.09,26.25.12,21.04.08,42.09.19,63.13.28.78,0,1.55,0,2.81,0Z"/>
        <path class="cls-2" d="M290.27,54.86c1.38-4.22,2.68-8.27,4.05-12.3.11-.32.69-.59,1.09-.66.62-.11,1.27-.04,1.91-.04,76.45,0,152.9,0,229.35-.05,2.17,0,3.28.47,3.83,2.71.83,3.38,2.04,6.67,3.2,10.34-1.14.06-1.97.15-2.8.15-29.81.03-59.63.04-89.44.11-2.47,0-4.25-.52-5.82-2.77-2.73-3.92-9.64-3.63-12.75.45-1.44,1.89-3.02,2.5-5.27,2.49-9.33-.06-18.65-.04-27.98.06-1.98.02-3.19-.49-4.1-2.42-1.86-3.92-5.32-5.63-9.54-5.57-4.14.06-6.81,2.38-8.24,6.15-.42,1.1-.9,1.64-2.19,1.64-24.55-.04-49.11-.03-73.66-.04-.38,0-.76-.11-1.64-.24Z"/>
        <path class="cls-2" d="M317.64,107.84h-23.13v-44.48c.95,0,1.8,0,2.65,0,22.15.08,44.3.15,66.45.24,5.78.02,7.89,2.17,7.9,7.97,0,11.39,0,22.79,0,34.18v2.58c-5.52,0-10.84.06-16.15-.06-.8-.02-1.72-.76-2.34-1.4-3.78-3.86-7.07-4.19-11.32-.91-2.42,1.87-5.21,2.25-8.11,2.32-.71.02-1.43-.05-2.15-.11-5.66-.47-5.4-.48-5.59-6.07-.12-3.67.9-6.24,3.7-8.7,4.2-3.69,3.47-11.36-1.03-15.36-3.76-3.34-10.26-3.92-14.26-1.29-4.35,2.86-6.19,8.64-4.35,13.74.93,2.58,2.57,4.67,5.14,5.68,2.39.94,2.97,2.42,2.64,4.85-.29,2.18-.06,4.42-.06,6.84ZM341.19,86.18c.16,6.93,4.48,11.32,10.99,11.15,6.27-.16,11.52-5.3,11.36-11.12-.19-6.75-5.29-11.54-12.13-11.38-5.72.13-10.36,5.28-10.22,11.35Z"/>
        <path class="cls-2" d="M424.61,63.27c0,6.69-.01,13.05,0,19.4.01,5.1-.03,10.19.12,15.29.06,2.05-.6,3.55-1.81,5.17-2.85,3.83-6.11,5.59-11.2,5.35-10.56-.49-21.16-.15-32.08-.15v-2.64c0-11.47.03-22.93-.04-34.4-.01-1.66.63-2.69,1.68-3.91,2.88-3.35,6.28-4.38,10.69-4.23,9.78.33,19.59.1,29.38.1.86,0,1.73,0,3.25,0ZM401.33,100.69c9.4.04,16.12-6.11,16.16-14.8.04-8.96-6.75-15.51-16.09-15.53-8.18-.01-14.98,6.49-15.05,14.41-.1,9.83,5.6,15.88,14.99,15.92Z"/>
        <path class="cls-2" d="M606.1,120.61c-1.92-.18-3.8-.36-5.81-.56-.07-4.78-3.84-5.11-7.42-6.16v-2.2c0-17.05.03-34.11-.04-51.16,0-1.78.37-2.75,2.24-3.18,2.84-.65,4.76-2.49,5.58-5.36,1.81-.21,3.53-.41,5.45-.64v69.25Z"/>
        <path class="cls-2" d="M234.37,63.66h13.6v44.13h-13.6v-44.13Z"/>
        <path class="cls-2" d="M285.98,107.81h-13.36v-44.32h13.36v44.32Z"/>
        <path class="cls-2" d="M199.72,63.45h25.81v44.26h-25.81v-44.26Z"/>
        <path class="cls-2" d="M268.63,23.31c-6.79-.08-12.21-5.4-12.09-11.86.12-6.24,5.68-11.12,12.07-11.44,5.32-.27,11.99,5.21,11.89,12.42-.08,6.16-5.41,10.96-11.88,10.88Z"/>
        <path class="cls-2" d="M256.56,63.5h7.86v44.25h-7.86v-44.25Z"/>
        <path class="cls-2" d="M541.39,86.22c.02,4.64-3.6,8.26-8.31,8.29-5.17.04-9.33-3.76-9.36-8.53-.03-4.59,3.85-8.62,8.41-8.72,4.87-.11,9.23,4.11,9.25,8.96Z"/>
        <path class="cls-2" d="M485.33,85.74c.01-4.37,3.9-8.46,8.07-8.49,4.87-.04,9.12,4.15,9.06,8.92-.05,4.38-4.14,8.34-8.56,8.29-4.86-.06-8.58-3.85-8.57-8.72Z"/>
        <path class="cls-2" d="M455.09,77.28c4.95-.03,9.2,4.01,9.22,8.76.02,4.53-4,8.47-8.59,8.43-4.56-.04-8.26-3.81-8.28-8.43-.02-5.19,3.07-8.72,7.65-8.75Z"/>
        <path class="cls-2" d="M409.8,85.83c-.02,4.57-3.65,8.17-8.21,8.13-4.12-.04-7.81-3.83-7.86-8.09-.05-4.62,3.4-8.21,7.83-8.14,4.68.07,8.26,3.59,8.24,8.1Z"/>
      </g>
    </g>
  </g>
</svg>