<?xml version="1.0" encoding="UTF-8"?>
<svg id="Layer_2" data-name="Layer 2" xmlns="http://www.w3.org/2000/svg" viewBox="0 0 542.01 337.14">
  <defs>
    <style>
      .cls-1 {
        fill: #fff;
      }

      .cls-2 {
        fill: #e51b23;
      }
    </style>
  </defs>
  <g id="Capa_1" data-name="Capa 1">
    <g>
      <g>
        <path class="cls-1" d="M6.39,311.52c.88-.89,1.94-1.61,3.13-2.12,2.37-1.02,5.12-1.04,7.56-.03,1.2.49,2.31,1.24,3.3,2.22.26.26.6.4.97.4h0c.37,0,.71-.15.98-.42.25-.27.37-.58.37-.93s-.13-.68-.4-.97c-1.23-1.23-2.63-2.17-4.17-2.8-2.59-1.06-5.59-1.23-8.23-.47-1.09.31-2.11.76-3.05,1.33-.93.56-1.78,1.25-2.53,2.03-.75.78-1.39,1.65-1.9,2.57-.52.93-.93,1.92-1.21,2.96-.28,1.05-.43,2.14-.43,3.24s.15,2.28.45,3.35c.29,1.06.72,2.07,1.26,3.01.54.93,1.2,1.79,1.95,2.55.76.76,1.61,1.43,2.54,1.97.92.54,1.93.97,3,1.27,1.07.3,2.2.46,3.35.46,1.63,0,3.22-.3,4.75-.89,1.53-.59,2.95-1.53,4.21-2.79.26-.26.39-.58.39-.96s-.14-.72-.44-1.01c-.56-.48-1.37-.45-1.88.07-1,.99-2.11,1.72-3.28,2.18-1.16.45-2.37.67-3.62.67-1.46,0-2.8-.27-3.99-.79-1.2-.53-2.25-1.25-3.12-2.15-.88-.9-1.57-1.96-2.06-3.15-.49-1.19-.74-2.46-.74-3.77s.26-2.65.77-3.85c.51-1.2,1.22-2.26,2.1-3.15Z"/>
        <path class="cls-1" d="M40.02,315.08c-.84-.84-1.84-1.51-2.97-2-2.28-.99-5.01-.99-7.3,0-1.13.49-2.14,1.16-2.98,2-.85.84-1.53,1.85-2.02,2.99-.49,1.14-.74,2.38-.74,3.67s.25,2.5.74,3.64c.49,1.13,1.17,2.14,2.01,2.98.85.85,1.85,1.53,2.98,2.01,1.14.49,2.36.74,3.64.74s2.52-.25,3.66-.74c1.13-.49,2.13-1.17,2.98-2.01.84-.85,1.51-1.85,1.99-2.99.48-1.14.73-2.36.73-3.64s-.24-2.52-.73-3.67c-.48-1.14-1.16-2.15-2-2.99ZM40.04,321.73c0,.89-.17,1.75-.51,2.56-.34.8-.81,1.52-1.41,2.13-.59.6-1.3,1.09-2.11,1.44-1.59.7-3.64.7-5.23,0-.81-.35-1.51-.83-2.11-1.44-.6-.61-1.07-1.33-1.42-2.13-.34-.8-.52-1.66-.52-2.55s.17-1.79.52-2.6c.35-.81.82-1.53,1.42-2.13.59-.6,1.3-1.08,2.11-1.42.81-.34,1.68-.52,2.6-.52s1.83.17,2.62.52c.81.35,1.52.83,2.11,1.42.59.6,1.06,1.31,1.41,2.12.34.81.51,1.68.51,2.6Z"/>
        <path class="cls-1" d="M59.42,314.98h0c-.75-.81-1.65-1.46-2.68-1.93-1.04-.48-2.19-.72-3.44-.72s-2.39.24-3.46.71c-1.05.47-1.98,1.12-2.76,1.92-.78.81-1.4,1.77-1.84,2.85-.44,1.08-.66,2.26-.66,3.48v8.21c0,.39.15.73.43.99.28.26.67.41,1.05.38.36-.02.69-.17.91-.42.23-.26.34-.58.34-.95v-8.17c0-.88.15-1.72.46-2.48.31-.76.73-1.43,1.26-1.99.53-.56,1.17-1,1.89-1.32,1.44-.64,3.32-.63,4.7.01.7.33,1.32.78,1.82,1.34.5.56.9,1.23,1.19,1.99.28.76.43,1.6.43,2.48v8.15c0,.39.14.72.41.99.27.26.59.39.96.39s.72-.14.98-.4c.25-.26.38-.59.38-.97v-8.21c0-1.22-.21-2.39-.62-3.47-.41-1.09-1-2.05-1.75-2.85Z"/>
        <path class="cls-1" d="M79.65,315.08c-.84-.84-1.84-1.52-2.96-2-2.25-.98-5.05-.98-7.3,0-1.13.49-2.13,1.17-2.97,2.01-.85.85-1.52,1.85-2.01,2.97-.49,1.13-.74,2.36-.74,3.65s.25,2.52.74,3.66c.49,1.13,1.17,2.14,2.01,2.98.85.85,1.85,1.52,2.97,2.01,1.13.49,2.36.74,3.65.74,1.49,0,2.82-.29,3.97-.86,1.13-.57,2.1-1.29,2.85-2.13.32-.3.48-.66.45-1.04-.02-.34-.14-.64-.31-.83-.18-.24-.38-.39-.62-.49-.06-.02-.12-.04-.17-.05-.39-.08-.81.07-1.25.44-.26.34-.58.65-.94.92-.37.28-.77.52-1.2.71-.43.2-.88.35-1.35.45-1.3.28-2.67.17-3.86-.31-.76-.3-1.44-.73-2.01-1.27-.58-.54-1.05-1.17-1.4-1.9-.27-.54-.45-1.12-.56-1.72h14.45c.39,0,.72-.14.98-.41.24-.26.36-.58.36-.94,0-1.28-.25-2.5-.75-3.64-.5-1.13-1.17-2.12-2.01-2.96ZM79.58,320.54h-13.02c.1-.63.28-1.23.55-1.78.36-.73.83-1.39,1.41-1.93.58-.55,1.26-.98,2.04-1.29,1.53-.62,3.43-.62,4.96,0,.77.31,1.47.75,2.06,1.29.59.54,1.07,1.19,1.44,1.93.27.56.46,1.16.56,1.79Z"/>
        <path class="cls-1" d="M86.6,319.11c.34-.79.81-1.5,1.4-2.09.59-.59,1.28-1.07,2.07-1.43,1.45-.65,3.27-.7,4.86-.12.73.27,1.41.69,2.01,1.24.13.12.28.22.43.3.51.28,1.12.2,1.54-.19.31-.27.47-.62.47-1.02s-.15-.74-.46-1.04c-.78-.8-1.74-1.41-2.86-1.82-2.31-.86-4.88-.82-7.04.11-1.12.48-2.11,1.15-2.95,1.99-.84.84-1.5,1.82-1.98,2.94-.48,1.12-.73,2.34-.73,3.62,0,.05,0,.1.01.14v.1c-.01,1.27.23,2.48.72,3.6.48,1.12,1.15,2.11,1.98,2.95.83.83,1.83,1.5,2.95,1.99,1.13.48,2.34.73,3.6.73,1.19,0,2.35-.22,3.45-.66,1.11-.44,2.07-1.06,2.84-1.85.31-.31.46-.66.46-1.04s-.15-.74-.44-1c-.45-.41-1.05-.48-1.57-.19-.16.09-.31.2-.45.32-.61.57-1.29,1-2.04,1.28-1.62.6-3.45.55-4.9-.12-.78-.36-1.47-.85-2.04-1.46-.57-.61-1.03-1.32-1.36-2.11-.33-.79-.49-1.62-.49-2.48,0-.03,0-.06,0-.08,0-.03,0-.05,0-.08,0-.88.17-1.73.51-2.52Z"/>
        <path class="cls-1" d="M116.53,326.4h0c-.07.02-.15.04-.28.1-.18.09-.32.19-.42.28-.65.57-1.33.98-2.03,1.22-1.52.53-3.47.49-4.96-.12-.81-.33-1.53-.79-2.14-1.37-.6-.57-1.08-1.26-1.43-2.04-.34-.78-.52-1.63-.52-2.53v-6.67h8.22c.4,0,.73-.13,1-.39.26-.26.4-.58.4-.96s-.15-.71-.43-.97c-.27-.25-.6-.38-.96-.38h-8.22v-4.74c0-.39-.13-.73-.38-.99-.24-.25-.59-.39-.95-.4-.39,0-.73.14-.99.4-.27.27-.41.6-.41.99v14.12c0,1.29.25,2.52.74,3.64.49,1.12,1.18,2.1,2.03,2.91.85.81,1.87,1.45,3,1.92,1.14.46,2.37.7,3.66.7,1.18,0,2.31-.2,3.36-.59,1.05-.4,1.99-.99,2.81-1.76.26-.26.42-.58.46-.96.05-.43-.09-.81-.41-1.11-.31-.28-.76-.39-1.16-.29Z"/>
        <path class="cls-1" d="M134.63,315.06c-.84-.84-1.84-1.51-2.96-1.99-2.28-.98-5-.98-7.28,0-1.13.49-2.14,1.16-2.98,2-.85.84-1.53,1.85-2.02,2.99-.49,1.14-.74,2.38-.74,3.67s.25,2.5.74,3.64c.49,1.13,1.17,2.14,2.01,2.98.85.85,1.85,1.53,2.98,2.01,1.14.49,2.36.74,3.64.74.78,0,1.56-.1,2.3-.31.73-.2,1.44-.49,2.08-.84.64-.36,1.25-.79,1.81-1.29.15-.14.3-.29.45-.43v1.23c0,.39.13.72.36.98.24.27.59.42.98.43.42,0,.76-.15,1.01-.42.25-.27.37-.6.37-.99v-7.81c-.01-1.29-.27-2.51-.76-3.64-.49-1.12-1.16-2.12-2-2.96ZM134.68,321.73c0,.89-.17,1.75-.51,2.56-.34.8-.81,1.52-1.41,2.13-.59.6-1.3,1.09-2.11,1.44-1.59.7-3.64.7-5.23,0-.81-.35-1.51-.83-2.11-1.44-.6-.61-1.07-1.32-1.42-2.13-.34-.8-.52-1.66-.52-2.55s.17-1.79.52-2.6c.35-.81.82-1.53,1.42-2.13.59-.6,1.3-1.08,2.11-1.42.81-.34,1.68-.52,2.6-.52s1.83.17,2.62.52c.81.35,1.52.83,2.11,1.42.59.6,1.07,1.31,1.41,2.12.34.81.51,1.68.51,2.6Z"/>
        <path class="cls-1" d="M163.46,326.4h0c-.07.02-.15.04-.28.1-.18.09-.32.19-.42.28-.65.57-1.33.98-2.03,1.22-1.52.53-3.47.49-4.96-.12-.81-.33-1.53-.79-2.14-1.37-.6-.57-1.08-1.26-1.43-2.04-.34-.78-.52-1.63-.52-2.53v-6.67h8.22c.4,0,.73-.13,1-.39.26-.26.4-.58.4-.96s-.15-.71-.43-.97c-.27-.25-.6-.38-.96-.38h-8.22v-4.74c0-.39-.13-.73-.38-.99-.24-.25-.59-.39-.95-.4-.38,0-.73.14-.99.4-.27.27-.41.6-.41.99v14.12c0,1.29.25,2.52.74,3.64.49,1.12,1.18,2.1,2.03,2.91.85.81,1.87,1.45,3,1.92,1.14.46,2.37.7,3.66.7,1.18,0,2.31-.2,3.36-.59,1.05-.4,1.99-.99,2.81-1.76.26-.26.42-.58.46-.96.05-.43-.09-.81-.41-1.11-.31-.28-.76-.39-1.16-.29Z"/>
        <path class="cls-1" d="M182.59,312.56h0c-.38,0-.74.15-.99.41h0c-.26.27-.39.6-.39.98v8.04c0,.87-.14,1.7-.42,2.48-.28.77-.67,1.46-1.17,2.04-.49.57-1.1,1.03-1.8,1.37-1.39.66-3.29.66-4.72,0-.73-.34-1.37-.8-1.91-1.36-.53-.57-.96-1.24-1.27-2-.3-.75-.46-1.57-.46-2.42v-8.15c0-.4-.14-.74-.4-1-.52-.5-1.37-.5-1.91,0-.27.25-.42.6-.42,1v8.17c0,1.23.22,2.4.66,3.48s1.05,2.05,1.83,2.86c.78.81,1.71,1.46,2.77,1.94,1.06.47,2.23.71,3.46.71s2.4-.24,3.44-.72c1.03-.47,1.93-1.13,2.68-1.96.74-.82,1.32-1.79,1.73-2.88.41-1.09.62-2.26.62-3.48v-8.13c0-.39-.13-.73-.38-.99-.25-.26-.59-.4-.97-.4Z"/>
        <path class="cls-1" d="M211.15,315.08c-.84-.84-1.84-1.52-2.97-2-2.29-.99-5.02-.99-7.3,0-1.13.49-2.14,1.16-2.98,2-.85.84-1.53,1.85-2.02,2.99-.49,1.14-.74,2.38-.74,3.67v14.01c0,.39.14.73.42,1,.27.26.6.4.97.4.4,0,.74-.15.98-.43.23-.27.35-.59.35-.96v-7.42c.14.15.29.29.45.42.56.49,1.17.92,1.81,1.26.66.35,1.36.63,2.1.82,1.95.5,4.12.34,5.95-.45,1.13-.49,2.13-1.17,2.98-2.01.84-.85,1.51-1.85,1.99-2.99.48-1.14.73-2.36.73-3.64s-.25-2.52-.73-3.67c-.48-1.14-1.15-2.15-2-2.99ZM211.17,321.73c0,.89-.17,1.75-.51,2.56-.34.8-.81,1.52-1.41,2.13-.59.6-1.3,1.09-2.11,1.44-1.59.69-3.64.69-5.23,0-.81-.35-1.51-.83-2.11-1.44-.6-.61-1.07-1.33-1.42-2.13-.34-.8-.52-1.66-.52-2.55s.17-1.79.52-2.6c.35-.81.82-1.53,1.42-2.13.59-.6,1.3-1.08,2.11-1.42.81-.34,1.68-.52,2.6-.52s1.83.17,2.63.52c.81.35,1.52.83,2.11,1.42.59.6,1.07,1.31,1.41,2.12.34.81.51,1.68.51,2.6Z"/>
        <path class="cls-1" d="M230.99,315.06c-.84-.84-1.84-1.51-2.96-1.99-2.28-.98-5-.98-7.28,0-1.13.49-2.14,1.16-2.98,2-.85.84-1.53,1.85-2.02,2.99-.49,1.14-.74,2.38-.74,3.67s.25,2.5.74,3.64c.49,1.13,1.17,2.14,2.01,2.98.85.85,1.85,1.53,2.98,2.01,1.14.49,2.36.74,3.64.74.78,0,1.56-.1,2.3-.31.73-.2,1.44-.49,2.08-.84.64-.36,1.25-.79,1.8-1.29.15-.14.31-.29.45-.43v1.23c0,.39.13.72.36.98.24.27.59.42.98.43.39,0,.76-.15,1.01-.42.25-.27.37-.6.37-.99v-7.81c-.01-1.29-.27-2.51-.76-3.64-.49-1.12-1.16-2.12-2-2.96ZM231.04,321.73c0,.89-.17,1.75-.51,2.55-.34.81-.81,1.52-1.41,2.13-.59.6-1.3,1.09-2.11,1.44-1.59.7-3.64.7-5.23,0-.81-.35-1.52-.83-2.11-1.44-.6-.61-1.07-1.33-1.42-2.13-.34-.8-.52-1.66-.52-2.55s.17-1.79.52-2.6c.35-.81.82-1.53,1.42-2.13.59-.6,1.3-1.08,2.11-1.42.81-.34,1.68-.52,2.6-.52s1.83.17,2.62.52c.81.35,1.51.83,2.11,1.42.59.6,1.06,1.31,1.41,2.12.34.81.51,1.68.51,2.6Z"/>
        <path class="cls-1" d="M247.36,321.87c-.6-.41-1.29-.77-2.07-1.06-.75-.28-1.54-.55-2.37-.8-.5-.15-.98-.3-1.42-.47-.42-.16-.8-.35-1.11-.56-.29-.2-.52-.44-.69-.71-.15-.25-.23-.56-.23-.93,0-.43.09-.78.28-1.06.2-.29.45-.53.76-.71.33-.19.72-.33,1.14-.42,1.23-.25,2.45-.16,3.35.25.55.26,1.08.71,1.6,1.4l.16.12c.54.27,1.06.19,1.48-.24.18-.19.3-.42.34-.7.04-.27,0-.56-.15-.86-.54-.98-1.33-1.71-2.34-2.16-1.62-.71-3.58-.85-5.39-.36-.73.2-1.39.5-1.96.91-.59.42-1.07.94-1.43,1.56-.37.64-.56,1.39-.56,2.24,0,.77.16,1.45.48,2.03.3.55.71,1.04,1.21,1.44.48.39,1.03.72,1.64.98.57.25,1.16.47,1.76.66.7.2,1.36.4,1.97.62.59.21,1.12.45,1.58.73.42.26.76.55,1.01.87.21.28.32.6.32.98s-.09.76-.28,1.08c-.19.34-.46.64-.8.89-.35.26-.76.46-1.21.61-.45.15-.93.22-1.43.22-.99,0-1.86-.18-2.57-.53-.69-.34-1.22-.84-1.6-1.5l-.07-.09c-.37-.37-.87-.55-1.33-.5-.39.05-.72.25-.93.58-.17.27-.3.73.01,1.36.29.58.66,1.08,1.12,1.51.45.42.96.77,1.54,1.05.57.27,1.18.48,1.83.61.64.13,1.31.2,1.99.2.87,0,1.7-.14,2.48-.41.77-.27,1.46-.65,2.04-1.13.59-.48,1.07-1.07,1.41-1.73.35-.67.52-1.42.52-2.21,0-.85-.19-1.6-.57-2.22-.37-.6-.87-1.12-1.49-1.54Z"/>
        <path class="cls-1" d="M252.62,312.96h0c-.27.26-.41.6-.41.99v15.53c0,.39.14.73.42,1,.27.26.59.4.95.4s.71-.14.97-.41c.26-.27.39-.6.39-.98v-15.53c0-.38-.13-.71-.38-.97-.51-.53-1.4-.54-1.94-.02Z"/>
        <path class="cls-1" d="M252.43,308.27c-.32.31-.48.71-.48,1.19,0,.44.16.82.48,1.14s.7.48,1.14.48c.47,0,.87-.16,1.19-.48s.48-.7.48-1.14c0-.48-.16-.88-.48-1.19-.64-.62-1.68-.62-2.31,0Z"/>
        <path class="cls-1" d="M267.7,310.89c.4,0,.75-.15,1.01-.43l3.36-3.39c.26-.28.39-.6.39-.95s-.15-.69-.44-.98c-.55-.51-1.38-.49-1.92.05l-3.36,3.4c-.26.28-.39.62-.38.98.01.35.14.67.4.95.26.26.58.39.95.39Z"/>
        <path class="cls-1" d="M273.5,315.08c-.84-.84-1.84-1.52-2.97-2-2.29-.99-5.01-.99-7.3,0-1.13.49-2.14,1.16-2.98,2-.85.84-1.53,1.85-2.02,2.99-.49,1.14-.74,2.38-.74,3.67s.25,2.5.74,3.64c.49,1.13,1.17,2.14,2.01,2.98.85.85,1.85,1.53,2.98,2.01,1.14.49,2.36.74,3.64.74s2.52-.25,3.66-.74c1.13-.49,2.13-1.17,2.98-2.01.84-.85,1.51-1.85,1.99-2.99.48-1.14.73-2.36.73-3.64s-.24-2.52-.73-3.67c-.48-1.14-1.16-2.15-2-2.99ZM273.52,321.73c0,.89-.17,1.75-.51,2.55-.34.81-.81,1.52-1.41,2.13-.59.6-1.3,1.09-2.11,1.44-1.59.7-3.64.7-5.23,0-.81-.35-1.51-.83-2.11-1.44-.6-.61-1.07-1.33-1.42-2.13-.34-.8-.52-1.66-.52-2.55s.17-1.79.52-2.6c.35-.81.82-1.53,1.42-2.13.59-.6,1.3-1.08,2.11-1.42.81-.34,1.68-.52,2.6-.52s1.83.17,2.62.52c.81.35,1.52.83,2.11,1.42.59.6,1.06,1.31,1.41,2.12.34.81.51,1.68.51,2.6Z"/>
        <path class="cls-1" d="M292.94,314.98h0c-.75-.81-1.65-1.46-2.68-1.93-1.04-.48-2.19-.72-3.44-.72s-2.39.24-3.46.71c-1.05.47-1.98,1.12-2.76,1.92-.78.81-1.4,1.77-1.84,2.85-.44,1.08-.66,2.26-.66,3.48v8.21c0,.39.15.73.43.99.28.26.66.41,1.05.38.36-.02.69-.17.91-.42.23-.26.34-.58.34-.95v-8.17c0-.88.15-1.72.46-2.48.31-.76.73-1.43,1.26-1.99.53-.56,1.17-1,1.89-1.32,1.44-.64,3.33-.63,4.7.01.71.33,1.32.78,1.82,1.34.51.56.9,1.23,1.19,1.99.28.77.43,1.6.43,2.48v8.15c0,.39.14.72.41.99.27.26.59.39.96.39s.72-.14.98-.4c.25-.26.38-.59.38-.97v-8.21c0-1.22-.21-2.39-.62-3.47-.41-1.09-1-2.05-1.75-2.85Z"/>
        <path class="cls-1" d="M299.66,326.69c-.4-.03-.75.14-1,.41h0c-.26.27-.39.6-.39.98v6.34c0,.39.13.72.4.98.26.26.59.4.98.4s.72-.14.98-.4c.25-.26.38-.59.38-.97v-6.34c0-.38-.12-.71-.37-.97-.24-.26-.59-.41-.97-.42Z"/>
        <path class="cls-1" d="M327.29,326.4h0c-.07.02-.15.04-.28.1-.18.09-.32.19-.42.28-.65.57-1.33.98-2.03,1.22-1.52.53-3.47.49-4.96-.12-.81-.33-1.53-.79-2.14-1.37-.6-.57-1.08-1.26-1.43-2.04-.34-.78-.52-1.63-.52-2.53v-6.67h8.22c.4,0,.73-.13,1-.39.26-.26.4-.59.4-.96s-.15-.71-.43-.97c-.27-.25-.6-.38-.96-.38h-8.22v-4.74c0-.39-.13-.73-.38-.99-.24-.25-.59-.4-.95-.4-.4,0-.73.14-1,.4-.27.27-.41.6-.41.99v14.12c0,1.29.25,2.51.74,3.64.49,1.12,1.18,2.1,2.03,2.91.85.81,1.87,1.45,3,1.92,1.14.46,2.37.7,3.66.7,1.18,0,2.31-.2,3.36-.59,1.05-.4,1.99-.99,2.81-1.76.26-.26.42-.58.46-.96.05-.43-.09-.81-.41-1.11-.31-.28-.76-.39-1.16-.29Z"/>
        <path class="cls-1" d="M345.43,315.08c-.84-.84-1.84-1.52-2.97-2-2.29-.99-5.01-.99-7.3,0-1.13.49-2.14,1.16-2.98,2-.85.84-1.53,1.85-2.02,2.99-.49,1.14-.74,2.38-.74,3.67s.25,2.5.74,3.64c.49,1.13,1.17,2.14,2.01,2.98.85.85,1.85,1.53,2.98,2.01,1.14.49,2.36.74,3.64.74s2.52-.25,3.66-.74c1.13-.49,2.13-1.17,2.98-2.01.84-.85,1.51-1.85,1.99-2.99.48-1.14.73-2.36.73-3.64s-.24-2.52-.73-3.67c-.48-1.14-1.16-2.15-2-2.99ZM345.44,321.73c0,.89-.17,1.75-.51,2.56-.34.8-.81,1.52-1.41,2.13-.59.6-1.3,1.09-2.11,1.44-1.59.7-3.64.7-5.23,0-.81-.35-1.51-.83-2.11-1.44-.6-.61-1.07-1.33-1.42-2.13-.34-.8-.52-1.66-.52-2.55s.17-1.79.52-2.6c.35-.81.82-1.53,1.42-2.13.59-.6,1.3-1.08,2.11-1.42.81-.34,1.68-.52,2.6-.52s1.83.17,2.62.52c.81.35,1.52.83,2.11,1.42.59.6,1.07,1.31,1.41,2.12.34.81.51,1.68.51,2.6Z"/>
        <path class="cls-1" d="M352.47,319.11c.34-.79.81-1.5,1.4-2.09.59-.59,1.28-1.07,2.07-1.43,1.45-.65,3.27-.7,4.86-.12.73.27,1.41.69,2.01,1.24.13.12.28.22.43.3.51.28,1.12.2,1.54-.19.31-.27.47-.62.47-1.02s-.15-.74-.46-1.04c-.78-.8-1.74-1.41-2.86-1.82-2.31-.86-4.88-.82-7.04.11-1.12.48-2.11,1.15-2.95,1.99-.84.84-1.5,1.82-1.98,2.94-.48,1.12-.73,2.34-.73,3.62,0,.05,0,.1.01.14v.1c-.01,1.27.23,2.48.72,3.6.48,1.12,1.15,2.11,1.98,2.95.83.83,1.83,1.5,2.95,1.99,1.13.48,2.34.73,3.6.73,1.19,0,2.35-.22,3.45-.66,1.11-.44,2.07-1.06,2.84-1.85.31-.31.46-.66.46-1.04s-.15-.74-.44-1c-.45-.41-1.05-.48-1.57-.19-.16.09-.31.2-.45.32-.61.57-1.29,1-2.04,1.28-1.62.6-3.45.55-4.9-.12-.78-.36-1.47-.85-2.04-1.46-.57-.61-1.03-1.32-1.36-2.11-.33-.79-.49-1.62-.49-2.48,0-.03,0-.06,0-.08,0-.03,0-.05,0-.08,0-.88.17-1.73.51-2.52Z"/>
        <path class="cls-1" d="M382.8,315.06c-.84-.84-1.84-1.51-2.96-1.99-2.28-.98-5-.98-7.28,0-1.13.49-2.14,1.16-2.98,2-.85.84-1.53,1.85-2.02,2.99-.49,1.14-.74,2.38-.74,3.67s.25,2.5.74,3.64c.49,1.13,1.17,2.14,2.01,2.98.85.85,1.85,1.53,2.98,2.01,1.14.49,2.36.74,3.64.74.78,0,1.56-.1,2.3-.31.73-.2,1.44-.49,2.08-.84.64-.36,1.25-.79,1.81-1.29.15-.14.3-.29.45-.43v1.23c0,.39.13.72.36.98.24.27.59.42.98.43.42,0,.76-.15,1.01-.42.25-.27.37-.6.37-.99v-7.81c-.01-1.29-.27-2.51-.76-3.64-.49-1.12-1.16-2.12-2-2.96ZM382.85,321.73c0,.89-.17,1.75-.51,2.56-.34.8-.81,1.52-1.41,2.13-.59.6-1.3,1.09-2.11,1.44-1.59.7-3.64.7-5.23,0-.81-.35-1.51-.83-2.11-1.44-.6-.61-1.07-1.33-1.42-2.13-.34-.8-.52-1.66-.52-2.55s.17-1.79.52-2.6c.35-.81.82-1.53,1.42-2.13.59-.6,1.3-1.08,2.11-1.42.81-.34,1.68-.52,2.6-.52s1.83.17,2.62.52c.81.35,1.52.83,2.11,1.42.59.6,1.06,1.31,1.41,2.12.34.81.51,1.68.51,2.6Z"/>
        <path class="cls-1" d="M411.64,326.4h0c-.07.02-.15.04-.28.1-.18.09-.32.19-.42.28-.65.57-1.33.98-2.03,1.22-1.52.53-3.47.49-4.96-.12-.81-.33-1.53-.79-2.14-1.37-.6-.57-1.08-1.26-1.43-2.04-.34-.78-.52-1.62-.52-2.53v-6.67h8.22c.4,0,.73-.13,1-.39.26-.26.4-.59.4-.96s-.15-.71-.43-.97c-.27-.25-.6-.38-.96-.38h-8.22v-4.74c0-.39-.13-.73-.38-.99-.24-.25-.59-.4-.95-.4-.37,0-.73.14-1,.4-.27.27-.41.6-.41.99v14.12c0,1.29.25,2.51.74,3.64.49,1.12,1.18,2.1,2.03,2.91.85.81,1.87,1.45,3,1.92,1.14.46,2.37.7,3.66.7,1.18,0,2.31-.2,3.36-.59,1.05-.4,1.99-.99,2.81-1.76.26-.26.42-.58.46-.96.05-.43-.09-.81-.41-1.11-.31-.28-.76-.39-1.16-.29Z"/>
        <path class="cls-1" d="M430.76,312.56h0c-.38,0-.74.15-.99.41-.25.26-.39.6-.39.98v8.04c0,.87-.14,1.7-.42,2.48-.28.77-.67,1.46-1.17,2.04-.49.57-1.1,1.03-1.8,1.37-1.39.66-3.28.66-4.72,0-.73-.34-1.37-.8-1.91-1.36-.53-.57-.96-1.24-1.27-2-.3-.75-.46-1.57-.46-2.42v-8.15c0-.4-.14-.74-.4-1-.52-.5-1.37-.5-1.91,0-.27.25-.42.6-.42,1v8.17c0,1.23.22,2.4.66,3.48s1.05,2.05,1.83,2.86c.78.81,1.71,1.46,2.77,1.94,1.06.47,2.23.71,3.46.71s2.4-.24,3.44-.72c1.03-.47,1.93-1.13,2.68-1.96.74-.82,1.32-1.79,1.73-2.88.41-1.09.62-2.26.62-3.48v-8.13c0-.4-.13-.73-.38-.99-.25-.26-.59-.4-.97-.4Z"/>
        <path class="cls-1" d="M450.77,305.92h-.08c-.79.01-1.54.18-2.23.49-.68.31-1.29.74-1.8,1.26-.51.53-.93,1.15-1.22,1.84-.3.7-.46,1.45-.47,2.25v2.6h-1.6c-.39,0-.71.13-.98.39-.26.26-.4.58-.4.96s.14.72.4.98c.26.25.59.38.97.38h1.6v12.4c0,.4.13.74.39,1,.26.26.59.4.96.4s.7-.14.96-.4c.26-.26.4-.6.4-1v-12.4h2.16c.37,0,.69-.13.95-.38.27-.26.4-.59.4-.98s-.13-.7-.4-.96c-.26-.26-.59-.39-.96-.39h-2.16v-2.59c.01-.43.1-.84.26-1.22.16-.38.39-.71.66-.99.27-.28.61-.51.99-.67.37-.16.79-.25,1.25-.25.38-.02.69-.16.94-.4.25-.25.39-.57.39-.93,0-.4-.13-.73-.4-1-.26-.26-.6-.39-1-.39Z"/>
        <path class="cls-1" d="M469.32,312.56h0c-.38,0-.74.15-.99.41-.26.27-.39.6-.39.98v8.04c0,.87-.14,1.7-.42,2.48-.28.77-.67,1.46-1.17,2.04-.49.57-1.1,1.03-1.8,1.37-1.39.66-3.29.66-4.72,0-.73-.34-1.37-.8-1.91-1.36-.53-.57-.96-1.24-1.27-2-.3-.75-.46-1.57-.46-2.42v-8.15c0-.4-.14-.74-.4-1-.52-.5-1.37-.5-1.9,0-.27.25-.42.6-.42,1v8.17c0,1.23.22,2.4.66,3.48s1.05,2.05,1.83,2.86c.78.81,1.71,1.46,2.77,1.94,1.06.47,2.23.71,3.46.71s2.4-.24,3.44-.72c1.03-.47,1.93-1.13,2.68-1.96.74-.82,1.32-1.79,1.73-2.88.41-1.09.62-2.26.62-3.48v-8.13c0-.39-.13-.73-.38-.99-.25-.26-.59-.4-.97-.4Z"/>
        <path class="cls-1" d="M488.37,326.4h0c-.07.02-.15.04-.28.1-.18.09-.32.19-.42.28-.65.57-1.33.98-2.03,1.22-1.52.53-3.47.49-4.96-.12-.81-.33-1.53-.79-2.14-1.37-.6-.57-1.08-1.26-1.43-2.04-.34-.78-.52-1.63-.52-2.53v-6.67h8.22c.4,0,.73-.13,1-.39.26-.26.4-.59.4-.96s-.15-.71-.43-.97c-.27-.25-.6-.38-.96-.38h-8.22v-4.74c0-.39-.13-.73-.38-.99-.24-.25-.59-.4-.95-.4-.35,0-.73.14-.99.4-.27.27-.41.6-.41.99v14.12c0,1.29.25,2.51.74,3.64.49,1.12,1.18,2.1,2.03,2.91.85.81,1.87,1.45,3,1.92,1.14.46,2.37.7,3.66.7,1.18,0,2.31-.2,3.36-.59,1.05-.4,1.99-.99,2.81-1.76.26-.26.42-.58.46-.96.05-.43-.09-.81-.41-1.11-.31-.28-.76-.39-1.16-.29Z"/>
        <path class="cls-1" d="M507.49,312.56h0c-.38,0-.74.15-.99.41-.26.27-.39.6-.39.98v8.04c0,.87-.14,1.7-.42,2.48-.28.77-.67,1.46-1.17,2.04-.49.57-1.1,1.03-1.8,1.37-1.39.66-3.29.66-4.72,0-.73-.34-1.37-.8-1.91-1.36-.53-.57-.96-1.24-1.27-2-.3-.75-.46-1.57-.46-2.42v-8.15c0-.4-.14-.74-.4-1-.52-.5-1.37-.5-1.91,0-.27.25-.42.6-.42,1v8.17c0,1.23.22,2.4.66,3.48s1.05,2.05,1.83,2.86c.78.81,1.71,1.46,2.77,1.94,1.06.47,2.23.71,3.46.71s2.4-.24,3.44-.72c1.03-.47,1.93-1.13,2.68-1.96.74-.82,1.32-1.79,1.73-2.88.41-1.09.62-2.26.62-3.48v-8.13c0-.39-.13-.73-.38-.99-.25-.26-.59-.4-.97-.4Z"/>
        <path class="cls-1" d="M522.85,312.97c-.25-.26-.6-.39-1.02-.39h-.19c-1.33,0-2.6.26-3.77.78-1.16.51-2.19,1.22-3.06,2.1-.87.88-1.56,1.92-2.06,3.08-.51,1.17-.77,2.44-.77,3.77v7.19c0,.39.14.72.41.99.27.26.6.39,1,.39.36,0,.69-.14.94-.4.25-.26.38-.59.38-.97v-7.19c0-.97.19-1.89.55-2.73.37-.86.88-1.61,1.5-2.24.62-.63,1.36-1.13,2.21-1.5.84-.36,1.73-.55,2.66-.55h.19c.38,0,.7-.12.97-.37.27-.25.42-.6.42-.99s-.12-.71-.37-.96Z"/>
        <path class="cls-1" d="M541.01,318.07h0c-.48-1.14-1.16-2.15-2-2.99-.84-.84-1.84-1.52-2.97-2-2.29-.99-5.01-.99-7.3,0-1.13.49-2.14,1.16-2.98,2-.85.84-1.53,1.85-2.02,2.99-.49,1.14-.74,2.38-.74,3.67s.25,2.5.74,3.64c.49,1.13,1.17,2.14,2.01,2.98.85.85,1.85,1.53,2.98,2.01,1.14.49,2.36.74,3.64.74s2.52-.25,3.66-.74c1.13-.49,2.13-1.17,2.98-2.01.84-.85,1.51-1.85,1.99-2.99.48-1.14.73-2.36.73-3.64s-.24-2.52-.73-3.67ZM539.03,321.73c0,.89-.17,1.75-.51,2.56-.34.8-.81,1.52-1.41,2.13-.59.6-1.3,1.09-2.11,1.44-1.59.7-3.64.7-5.23,0-.81-.35-1.51-.83-2.11-1.44-.6-.61-1.07-1.33-1.42-2.13-.34-.8-.52-1.66-.52-2.55s.17-1.79.52-2.6c.35-.81.82-1.53,1.42-2.13.59-.6,1.3-1.08,2.11-1.42.81-.34,1.68-.52,2.6-.52s1.83.17,2.62.52c.81.35,1.52.83,2.11,1.42.59.6,1.07,1.31,1.41,2.12.34.81.51,1.68.51,2.6Z"/>
      </g>
      <g>
        <path class="cls-2" d="M451.75,63.44v44.48c-.96,0-1.8,0-2.65,0-37.44.1-74.87.21-112.31.31-9.32.03-18.64,0-27.96.09-1.86.02-3.28-.35-4.06-2.17-.18-.43-.46-.89-.83-1.15-3.91-2.73-4.15-6.66-4.08-10.97.14-9.16-.08-18.32-.13-27.48,0-1.01.1-2.03.16-3.12h151.85ZM416.3,85.25c-.03-8.85-7.14-15.58-16.45-15.58-9.52,0-16.14,6.85-16.06,16.63.08,9.47,6.52,15.75,16.06,15.66,9.55-.09,16.48-7.13,16.45-16.71ZM360.7,101.72c9.51-.05,16.4-6.83,16.38-16.12-.02-8.87-7.28-16.06-16.16-16.01-8.76.05-15.82,7.39-15.78,16.43.04,9.27,6.45,15.74,15.56,15.7ZM307.04,85.99c-.11,8.79,6.37,15.49,15.15,15.63,9.63.16,16.58-6.47,16.74-15.98.14-8.04-7.4-15.98-15.24-16.06-9.71-.09-16.52,6.61-16.64,16.4Z"/>
        <path class="cls-2" d="M401.15,116.59c-1.4,4.34-2.64,8.34-4.01,12.29-.17.49-.97.88-1.55,1.06-.58.18-1.26.05-1.9.05-76.26,0-152.53-.01-228.79.06-2.37,0-3.6-.54-4.19-2.95-.87-3.52-2.1-6.95-3.23-10.6h47.02c.45,1.1.81,2.24,1.36,3.26,2.99,5.6,9.64,6.44,13.95,1.78.54-.58,1.17-1.18,1.44-1.89,1.18-3.15,3.47-3.58,6.57-3.55,18.81.15,37.61.09,56.42.04,1.68,0,2.67.4,3.63,1.91,3.99,6.27,13.04,6.17,16.96-.11,1.03-1.65,2.27-1.8,4.17-1.75,8.74.23,17.49.09,26.24.12,21.04.08,42.07.19,63.11.28.77,0,1.55,0,2.81,0Z"/>
        <path class="cls-2" d="M157.6,54.84c1.38-4.22,2.68-8.27,4.05-12.3.11-.32.69-.59,1.09-.66.62-.11,1.27-.04,1.91-.04,76.43,0,152.85,0,229.28-.05,2.17,0,3.28.47,3.83,2.71.83,3.38,2.04,6.67,3.19,10.34-1.14.06-1.97.15-2.8.15-29.81.03-59.61.04-89.42.11-2.46,0-4.25-.52-5.81-2.77-2.73-3.92-9.64-3.63-12.74.45-1.44,1.89-3.02,2.5-5.27,2.49-9.32-.06-18.65-.04-27.97.06-1.97.02-3.19-.49-4.1-2.42-1.86-3.92-5.32-5.63-9.54-5.57-4.13.06-6.81,2.38-8.24,6.15-.42,1.1-.9,1.64-2.19,1.64-24.55-.04-49.09-.03-73.64-.04-.38,0-.76-.11-1.64-.24Z"/>
        <path class="cls-2" d="M184.96,107.81h-23.12v-44.46c.95,0,1.8,0,2.65,0,22.14.08,44.29.15,66.43.24,5.78.02,7.89,2.17,7.89,7.96,0,11.39,0,22.78,0,34.17v2.58c-5.52,0-10.83.06-16.14-.06-.8-.02-1.72-.76-2.34-1.4-3.78-3.86-7.06-4.19-11.32-.91-2.42,1.86-5.2,2.25-8.1,2.32-.71.02-1.43-.05-2.15-.11-5.65-.47-5.4-.48-5.59-6.07-.12-3.67.9-6.24,3.7-8.7,4.2-3.69,3.47-11.36-1.03-15.36-3.76-3.33-10.25-3.92-14.25-1.29-4.34,2.86-6.19,8.64-4.35,13.73.93,2.58,2.57,4.67,5.14,5.68,2.39.94,2.97,2.42,2.64,4.85-.29,2.18-.06,4.42-.06,6.84ZM208.51,86.15c.16,6.93,4.48,11.32,10.99,11.15,6.27-.16,11.52-5.3,11.36-11.12-.19-6.75-5.29-11.53-12.13-11.37-5.72.13-10.35,5.28-10.22,11.34Z"/>
        <path class="cls-2" d="M291.9,63.25c0,6.69-.01,13.05,0,19.4.01,5.09-.03,10.19.12,15.28.06,2.04-.6,3.55-1.81,5.17-2.84,3.83-6.11,5.58-11.19,5.35-10.56-.49-21.15-.15-32.07-.15v-2.64c0-11.46.03-22.92-.04-34.39-.01-1.66.62-2.69,1.68-3.91,2.88-3.35,6.28-4.38,10.69-4.23,9.78.33,19.58.1,29.37.1.86,0,1.73,0,3.25,0ZM268.62,100.66c9.4.04,16.11-6.11,16.15-14.79.04-8.95-6.75-15.51-16.08-15.53-8.17-.01-14.97,6.49-15.05,14.4-.1,9.83,5.6,15.88,14.98,15.91Z"/>
        <path class="cls-2" d="M473.33,120.57c-1.92-.18-3.8-.36-5.81-.56-.07-4.78-3.84-5.11-7.42-6.16v-2.2c0-17.05.03-34.1-.04-51.14,0-1.78.37-2.75,2.24-3.18,2.84-.65,4.76-2.49,5.58-5.36,1.81-.21,3.53-.41,5.45-.64v69.23Z"/>
        <path class="cls-2" d="M101.73,63.64h13.6v44.11h-13.6v-44.11Z"/>
        <path class="cls-2" d="M153.32,107.78h-13.35v-44.3h13.35v44.3Z"/>
        <path class="cls-2" d="M67.09,63.43h25.8v44.24h-25.8v-44.24Z"/>
        <path class="cls-2" d="M135.98,23.3c-6.79-.08-12.21-5.4-12.08-11.86.12-6.23,5.68-11.12,12.07-11.44,5.32-.27,11.98,5.21,11.89,12.42-.08,6.15-5.4,10.96-11.88,10.88Z"/>
        <path class="cls-2" d="M123.9,63.48h7.86v44.23h-7.86v-44.23Z"/>
        <path class="cls-2" d="M408.64,86.19c.02,4.64-3.6,8.25-8.3,8.29-5.17.04-9.33-3.76-9.36-8.53-.03-4.59,3.85-8.62,8.41-8.72,4.87-.11,9.23,4.11,9.25,8.96Z"/>
        <path class="cls-2" d="M352.6,85.72c.01-4.37,3.89-8.46,8.07-8.49,4.87-.04,9.12,4.15,9.06,8.92-.05,4.38-4.14,8.34-8.56,8.28-4.86-.06-8.58-3.85-8.57-8.72Z"/>
        <path class="cls-2" d="M322.37,77.25c4.94-.03,9.2,4.01,9.21,8.75.02,4.52-4,8.46-8.59,8.42-4.56-.04-8.26-3.81-8.27-8.43-.02-5.19,3.07-8.72,7.65-8.75Z"/>
        <path class="cls-2" d="M277.09,85.8c-.02,4.57-3.65,8.17-8.21,8.13-4.12-.04-7.81-3.83-7.86-8.09-.05-4.61,3.4-8.21,7.83-8.14,4.67.07,8.25,3.59,8.24,8.1Z"/>
      </g>
      <g>
        <path class="cls-1" d="M36.22,204.93c5.96,0,11.59,1.87,16.2,5.36.92.83,2.12,1.24,3.38,1.15,1.37-.1,2.66-.77,3.53-1.84.86-1.03,1.24-2.31,1.09-3.63-.16-1.35-.89-2.6-1.98-3.42-6.34-4.98-14.02-7.61-22.23-7.61-19.97,0-36.22,16.25-36.22,36.22s16.25,36.37,36.22,36.37c8.2,0,15.89-2.63,22.21-7.6,1.14-.86,1.87-2.17,2.01-3.59.12-1.32-.28-2.56-1.07-3.43-.81-1.08-2-1.77-3.34-1.93-1.28-.16-2.59.21-3.54,1-4.81,3.64-10.43,5.57-16.27,5.57-14.46,0-26.23-11.83-26.23-26.38s11.77-26.23,26.23-26.23Z"/>
        <path class="cls-1" d="M102.08,257.1c-14.24,0-22.09-8.47-22.09-23.86v-66.89c0-2.58-2.33-4.85-5-4.85-2.8,0-5,2.13-5,4.85v66.89c0,20.88,12.29,33.86,32.08,33.86,2.72,0,4.85-2.19,4.85-5s-2.13-5-4.85-5Z"/>
        <path class="cls-1" d="M145.74,195.38c-19.89,0-36.07,16.18-36.07,36.08s16.18,36.07,36.07,36.07c9.89,0,19.48-4.74,26.67-13.11v7.97c0,2.72,2.06,4.85,4.7,4.85s4.7-2.13,4.7-4.85v-30.93c0-19.89-16.18-36.08-36.08-36.08ZM145.74,257.54c-14.46,0-26.23-11.7-26.23-26.08s11.77-26.23,26.23-26.23,26.23,11.77,26.23,26.23-11.77,26.08-26.23,26.08Z"/>
        <path class="cls-1" d="M223.15,194.94c-17.28,0-31.34,14.06-31.34,31.34v35.81c0,2.75,2.24,5,5,5s5-2.24,5-5v-35.81c0-11.69,9.58-21.2,21.35-21.2,9.07,0,17.13,5.74,20.07,14.26.89,2.67,3.57,4.06,6.46,3.29,1.25-.45,2.25-1.37,2.81-2.6.55-1.2.6-2.56.17-3.69-4.27-12.8-16.13-21.4-29.51-21.4Z"/>
        <path class="cls-1" d="M267.25,173.33c-3.8,0-6.77,2.97-6.77,6.77s2.97,6.92,6.77,6.92,6.77-3.04,6.77-6.92-2.97-6.77-6.77-6.77Z"/>
        <path class="cls-1" d="M267.25,195.24c-2.85,0-5,2.15-5,5v61.86c0,2.85,2.15,5,5,5s5-2.29,5-5v-61.86c0-2.71-2.29-5-5-5Z"/>
        <path class="cls-1" d="M321.12,195.09c-19.89,0-36.08,16.18-36.08,36.07v60.83c0,2.72,2.06,4.85,4.7,4.85s4.7-2.17,4.7-4.85v-36.49c6.78,7.4,16.56,11.74,26.68,11.74,19.89,0,36.07-16.18,36.07-36.08s-16.18-36.07-36.07-36.07ZM321.12,257.39c-14.46,0-26.23-11.77-26.23-26.23s11.77-26.23,26.23-26.23,26.08,11.77,26.08,26.23-11.7,26.23-26.08,26.23Z"/>
        <path class="cls-1" d="M395.56,257.1c-14.24,0-22.09-8.47-22.09-23.86v-66.89c0-2.58-2.33-4.85-5-4.85-2.8,0-5,2.13-5,4.85v66.89c0,20.88,12.29,33.86,32.08,33.86,2.72,0,4.85-2.19,4.85-5s-2.13-5-4.85-5Z"/>
        <path class="cls-1" d="M439.22,195.38c-19.89,0-36.07,16.18-36.07,36.08s16.18,36.07,36.07,36.07c9.89,0,19.48-4.74,26.67-13.11v7.97c0,2.72,2.06,4.85,4.7,4.85s4.7-2.13,4.7-4.85v-30.93c0-19.89-16.18-36.08-36.08-36.08ZM439.22,257.54c-14.46,0-26.23-11.7-26.23-26.08s11.77-26.23,26.23-26.23,26.23,11.77,26.23,26.23-11.77,26.08-26.23,26.08Z"/>
        <path class="cls-1" d="M541.67,198.65c-.46-1.19-1.36-2.14-2.42-2.58-2.63-1.23-5.49-.23-6.82,2.43l-22.48,51.65-23.23-51.87c-1.34-2.48-4.2-3.43-6.57-2.24-1.11.43-2,1.31-2.5,2.5-.56,1.32-.55,2.84.02,4.18l26.9,59.98-9.73,22.51c-.53,1.16-.58,2.54-.13,3.81.46,1.27,1.38,2.31,2.51,2.83.8.4,1.43.4,2.22.4,1.96,0,3.76-1.2,4.47-2.97l37.59-86.57c.61-1.31.67-2.76.16-4.06Z"/>
      </g>
    </g>
  </g>
</svg>