<?xml version="1.0" encoding="UTF-8"?>
<svg id="Layer_2" data-name="Layer 2" xmlns="http://www.w3.org/2000/svg" viewBox="0 0 805.51 325.16">
  <defs>
    <style>
      .cls-1 {
        fill: #fff;
      }
    </style>
  </defs>
  <g id="Capa_1" data-name="Capa 1">
    <g>
      <path class="cls-1" d="M619.97,258.56l-18.62-27.47,18-26.49c.46-.68.73-1.48.82-2.41.09-.96-.12-1.82-.63-2.57-.51-.75-1.14-1.13-1.89-1.13s-1.39.4-1.93,1.2l-17.83,26.37-17.88-26.44c-.54-.8-1.19-1.2-1.93-1.2s-1.33.38-1.83,1.12c-.51.69-.76,1.52-.74,2.44.02.91.26,1.73.73,2.41l18.1,26.77-18.53,27.47c-.43.63-.68,1.43-.75,2.38-.07.98.15,1.84.66,2.52.48.7,1.08,1.06,1.79,1.06.78,0,1.44-.4,1.98-1.2l18.35-27.14,18.44,27.28c.6.88,1.33,1.06,1.84,1.06.74,0,1.38-.38,1.88-1.12.51-.7.74-1.55.69-2.53-.05-.95-.3-1.75-.73-2.39Z"/>
      <g>
        <path class="cls-1" d="M87.23,207.31c-1.31-2.79-3.06-5.24-5.2-7.28-2.14-2.04-4.67-3.68-7.5-4.87-2.84-1.2-5.9-1.8-9.11-1.8-2.17,0-4.32.29-6.39.86-2.07.57-4.05,1.41-5.87,2.47-1.82,1.07-3.51,2.35-5.01,3.82-1.31,1.28-2.47,2.69-3.46,4.22-.95-1.52-2.08-2.94-3.37-4.21-1.48-1.47-3.13-2.75-4.9-3.82-1.77-1.07-3.71-1.9-5.76-2.48-2.05-.57-4.22-.86-6.43-.86-3.16,0-6.23.62-9.14,1.84-2.91,1.22-5.5,2.92-7.72,5.06-2.22,2.14-4.02,4.66-5.34,7.49-1.34,2.84-2.01,5.93-2.01,9.18v42.91c0,1.07.38,1.97,1.14,2.68.75.7,1.63,1.05,2.63,1.05s1.8-.36,2.5-1.07c.7-.71,1.05-1.6,1.05-2.67v-43.04c.05-2.12.53-4.18,1.44-6.12.92-1.94,2.17-3.67,3.71-5.14,1.55-1.47,3.35-2.65,5.35-3.5,3.9-1.67,8.57-1.71,12.64-.07,2,.81,3.8,1.93,5.35,3.32,1.54,1.39,2.8,3.07,3.74,4.99.93,1.91,1.43,4,1.48,6.21v43.35c0,1.07.38,1.97,1.14,2.68,1.5,1.4,3.65,1.4,5.09,0,.73-.71,1.1-1.61,1.1-2.67v-42.61c0-2.17.45-4.28,1.34-6.26.89-1.99,2.13-3.75,3.67-5.24,1.55-1.49,3.38-2.71,5.42-3.61,3.95-1.74,8.52-1.8,12.64-.14,2,.81,3.8,1.93,5.35,3.32,1.55,1.4,2.83,3.08,3.82,5,.98,1.91,1.5,4,1.54,6.2v43.35c0,1.07.38,1.97,1.14,2.68.75.7,1.63,1.05,2.63,1.05s1.8-.36,2.5-1.07c.7-.71,1.06-1.6,1.06-2.67v-43.05c0-.26-.03-.46-.08-.62-.16-3.11-.89-6.08-2.19-8.85Z"/>
        <path class="cls-1" d="M165.04,194.24c-1.11,0-2.03.37-2.73,1.11-.7.73-1.05,1.64-1.05,2.7v31.96c0,3.65-.59,7.16-1.75,10.45-1.16,3.28-2.82,6.2-4.93,8.66-2.1,2.46-4.68,4.43-7.66,5.86-2.98,1.43-6.33,2.15-9.97,2.15s-6.98-.73-10.05-2.16c-3.08-1.44-5.79-3.39-8.03-5.8-2.25-2.41-4.04-5.27-5.32-8.48-1.28-3.21-1.93-6.65-1.93-10.25v-32.4c0-1.11-.36-2.03-1.06-2.71-.7-.68-1.56-1.02-2.57-1.02s-1.87.34-2.6,1.02c-.73.68-1.11,1.6-1.11,2.72v32.47c0,4.65.83,9.09,2.47,13.19,1.64,4.1,3.95,7.74,6.87,10.81,2.92,3.07,6.41,5.53,10.38,7.31,3.98,1.78,8.33,2.69,12.94,2.69s8.98-.91,12.84-2.69c3.85-1.78,7.21-4.26,9.99-7.36,2.77-3.09,4.96-6.76,6.5-10.88,1.54-4.13,2.32-8.57,2.32-13.22v-32.33c0-1.11-.34-2.03-1.01-2.73-.68-.71-1.53-1.07-2.54-1.07Z"/>
        <path class="cls-1" d="M222.71,230.96c-2.23-1.56-4.85-2.91-7.79-4.02-2.89-1.1-5.99-2.15-9.21-3.13-1.97-.58-3.89-1.22-5.72-1.9-1.79-.67-3.4-1.49-4.76-2.44-1.34-.93-2.42-2.06-3.21-3.34-.77-1.26-1.16-2.82-1.16-4.62,0-2.05.46-3.78,1.37-5.16.92-1.4,2.13-2.53,3.58-3.37,1.47-.85,3.15-1.47,4.98-1.85,1.85-.38,3.7-.58,5.5-.58,3.36,0,6.3.58,8.74,1.72,2.43,1.13,4.72,3.13,6.8,5.94l.07.1.11.05c1.57.8,2.81.44,3.86-.61.46-.47.75-1.08.87-1.82.11-.74-.03-1.5-.42-2.3-1.94-3.56-4.77-6.19-8.42-7.82-3.62-1.61-7.64-2.43-11.96-2.43-2.74,0-5.48.36-8.14,1.08-2.67.72-5.08,1.85-7.18,3.34-2.11,1.5-3.84,3.41-5.13,5.67-1.3,2.27-1.96,4.97-1.96,8.04,0,2.77.56,5.2,1.66,7.22,1.09,2.01,2.55,3.76,4.34,5.22,1.77,1.44,3.81,2.67,6.05,3.63,2.21.96,4.46,1.81,6.7,2.55h.02c2.75.79,5.4,1.62,7.87,2.49,2.46.87,4.65,1.89,6.53,3.04,1.85,1.14,3.35,2.44,4.45,3.88,1.07,1.4,1.61,3.07,1.61,4.95s-.44,3.6-1.32,5.16c-.88,1.57-2.1,2.94-3.61,4.07-1.53,1.14-3.29,2.04-5.24,2.68s-4.02.97-6.14.97c-4.17,0-7.83-.77-10.87-2.3-3.02-1.51-5.36-3.72-6.96-6.56l-.08-.11c-1.02-1.02-2.16-1.54-3.41-1.54s-2.2.53-2.83,1.56c-.63,1.03-.58,2.28.12,3.71,1.04,2.1,2.4,3.95,4.03,5.5,1.63,1.55,3.52,2.85,5.62,3.87,2.09,1.02,4.39,1.79,6.81,2.28,2.43.49,4.95.75,7.49.75,3.24,0,6.33-.52,9.19-1.54,2.85-1.02,5.39-2.43,7.54-4.2,2.15-1.77,3.87-3.9,5.11-6.33,1.24-2.44,1.87-5.12,1.87-7.98,0-3.07-.67-5.72-2-7.9-1.32-2.16-3.13-4.05-5.38-5.62Z"/>
        <path class="cls-1" d="M248.07,175.36c-1.25,0-2.34.46-3.26,1.35-.92.9-1.39,2.07-1.39,3.48,0,1.26.46,2.37,1.38,3.29.92.93,2.02,1.4,3.27,1.4,1.39,0,2.57-.47,3.49-1.4.92-.93,1.38-2.03,1.38-3.29,0-1.41-.47-2.58-1.39-3.48-.92-.9-2.09-1.35-3.48-1.35Z"/>
        <path class="cls-1" d="M248.15,194.31c-1,0-1.88.36-2.6,1.06-.73.71-1.1,1.61-1.1,2.67v61.71c0,1.07.38,1.98,1.13,2.71.75.73,1.61,1.1,2.57,1.1,1.01,0,1.88-.37,2.58-1.11.69-.73,1.05-1.64,1.05-2.7v-61.71c0-1.06-.34-1.95-1.01-2.66-.68-.71-1.56-1.07-2.62-1.07Z"/>
        <path class="cls-1" d="M274.73,217.86c1.43-3.36,3.4-6.33,5.86-8.85,2.47-2.51,5.38-4.54,8.66-6.03,3.27-1.48,6.82-2.23,10.56-2.23,3.42,0,6.73.58,9.83,1.73,3.1,1.15,5.95,2.92,8.47,5.27.41.36.88.69,1.4.98,1.33.74,2.91.61,4.14-.54.84-.73,1.26-1.65,1.26-2.73s-.44-2.04-1.31-2.92c-2.9-2.98-6.48-5.28-10.63-6.84-4.14-1.56-8.49-2.35-12.95-2.35-4.75,0-9.3.93-13.52,2.76-4.21,1.83-7.94,4.36-11.07,7.53-3.14,3.17-5.64,6.92-7.45,11.14-1.81,4.23-2.73,8.83-2.73,13.68,0,.17.04.35.11.54l-.08.26-.03.16c0,4.8.92,9.39,2.73,13.64,1.81,4.25,4.32,8.01,7.45,11.18,3.14,3.17,6.86,5.7,11.07,7.53,4.22,1.83,8.77,2.76,13.52,2.76,4.46,0,8.82-.84,12.96-2.5,4.14-1.66,7.72-4.01,10.61-6.98.87-.88,1.31-1.86,1.31-2.92s-.4-1.98-1.18-2.72c-1.25-1.17-2.81-1.31-4.19-.51-.53.31-1.01.65-1.44,1.03-2.56,2.44-5.45,4.27-8.6,5.44-3.15,1.17-6.51,1.77-9.98,1.77-3.79,0-7.37-.78-10.63-2.3-3.28-1.53-6.15-3.61-8.54-6.17-2.4-2.56-4.31-5.57-5.69-8.92-1.38-3.35-2.07-6.89-2.07-10.54,0-.09-.02-.21-.08-.34.05-.14.08-.23.08-.32,0-3.73.72-7.33,2.14-10.68Z"/>
        <path class="cls-1" d="M394.67,203.76c-3.16-3.19-6.92-5.75-11.18-7.6-4.26-1.86-8.89-2.8-13.74-2.8s-9.4.94-13.66,2.8c-4.26,1.85-8.03,4.41-11.22,7.6-3.18,3.19-5.73,7-7.57,11.33-1.84,4.33-2.77,9-2.77,13.9s.93,9.48,2.77,13.79c1.84,4.3,4.38,8.11,7.56,11.32,3.18,3.21,6.96,5.78,11.22,7.64,4.27,1.86,8.86,2.8,13.66,2.8s9.47-.94,13.74-2.8c4.26-1.85,8.03-4.43,11.18-7.64,3.16-3.21,5.68-7.02,7.49-11.32,1.81-4.3,2.73-8.94,2.73-13.79s-.92-9.56-2.73-13.89c-1.81-4.33-4.33-8.14-7.49-11.33ZM369.75,257.13c-3.89,0-7.57-.75-10.93-2.24-3.37-1.48-6.34-3.54-8.83-6.1-2.49-2.56-4.49-5.59-5.94-8.99-1.45-3.4-2.18-7.04-2.18-10.82s.73-7.59,2.18-11.01c1.45-3.42,3.44-6.45,5.94-8.99,2.49-2.54,5.47-4.56,8.87-6.03,3.39-1.46,7.06-2.2,10.9-2.2s7.64.74,11.01,2.2c3.37,1.46,6.34,3.49,8.83,6.03,2.49,2.54,4.47,5.56,5.9,8.99,1.42,3.43,2.14,7.13,2.14,11.01s-.72,7.43-2.14,10.83c-1.43,3.4-3.41,6.43-5.9,8.99-2.49,2.56-5.46,4.61-8.83,6.1-3.36,1.48-7.07,2.24-11,2.24Z"/>
        <path class="cls-1" d="M470.99,203.33c-2.8-3.05-6.17-5.5-10.02-7.28-3.86-1.79-8.18-2.69-12.84-2.69s-8.95.9-12.91,2.69c-3.95,1.78-7.43,4.23-10.34,7.27-2.92,3.04-5.23,6.67-6.87,10.78-1.64,4.1-2.47,8.54-2.47,13.19v32.62c0,1.07.38,1.97,1.14,2.68.75.7,1.63,1.05,2.63,1.05,1.12,0,2-.37,2.63-1.09.61-.7.92-1.59.92-2.64v-32.47c0-3.74.65-7.27,1.93-10.51,1.28-3.23,3.07-6.08,5.32-8.47,2.25-2.39,4.94-4.29,7.99-5.65,3.05-1.36,6.42-2.05,10.02-2.05s6.93.71,9.9,2.12c2.98,1.41,5.57,3.33,7.7,5.72,2.13,2.39,3.81,5.24,5,8.47,1.19,3.24,1.79,6.75,1.79,10.44v32.4c0,1.07.37,1.97,1.1,2.67.72.7,1.6,1.06,2.6,1.06,1.06,0,1.94-.36,2.62-1.07.67-.71,1.01-1.6,1.01-2.66v-32.62c0-4.64-.78-9.08-2.32-13.18-1.54-4.11-3.74-7.73-6.54-10.78Z"/>
        <path class="cls-1" d="M550.7,203.76c-3.16-3.19-6.91-5.75-11.14-7.6-4.24-1.86-8.85-2.8-13.7-2.8s-9.46.94-13.7,2.8c-4.24,1.85-8,4.42-11.18,7.64-3.18,3.21-5.73,7.01-7.56,11.29-1.84,4.28-2.77,8.93-2.77,13.83s.93,9.56,2.77,13.86c1.84,4.3,4.38,8.11,7.56,11.32,3.18,3.21,6.94,5.78,11.18,7.64,4.24,1.86,8.85,2.8,13.7,2.8,5.58,0,10.58-1.09,14.85-3.25,4.26-2.15,7.91-4.92,10.82-8.2.88-.84,1.3-1.77,1.25-2.78-.05-.97-.37-1.78-.9-2.36-.49-.66-1.03-1.11-1.63-1.35-.17-.05-.32-.1-.46-.13-.15-.03-.32-.04-.5-.04-.89,0-1.78.36-2.65,1.07l-.08.08c-1.13,1.48-2.48,2.82-4.02,3.98-1.54,1.17-3.24,2.19-5.04,3.03-1.8.84-3.71,1.48-5.68,1.91-1.97.43-3.98.65-5.97.65-3.61,0-7.04-.66-10.22-1.95-3.18-1.29-6.01-3.1-8.43-5.37s-4.4-4.98-5.9-8.05c-1.42-2.91-2.3-6.05-2.63-9.35h58.84c1.06,0,1.94-.36,2.59-1.08.64-.7.97-1.57.97-2.58,0-4.85-.94-9.47-2.81-13.76-1.86-4.28-4.41-8.06-7.56-11.25ZM553.55,225.98h-55.1c.29-3.39,1.15-6.61,2.57-9.57,1.5-3.11,3.49-5.87,5.93-8.19,2.44-2.32,5.31-4.16,8.54-5.48,3.22-1.32,6.74-1.98,10.44-1.98s7.14.67,10.36,1.98c3.23,1.32,6.13,3.15,8.62,5.45,2.49,2.3,4.52,5.05,6.04,8.19,1.44,2.98,2.32,6.21,2.6,9.6Z"/>
        <path class="cls-1" d="M643.02,175.36c-1.25,0-2.34.46-3.26,1.35-.92.9-1.39,2.07-1.39,3.48,0,1.26.46,2.37,1.38,3.29.92.93,2.02,1.4,3.27,1.4,1.39,0,2.57-.47,3.49-1.4.92-.93,1.38-2.03,1.38-3.29,0-1.41-.47-2.58-1.39-3.48-.92-.9-2.09-1.35-3.48-1.35Z"/>
        <path class="cls-1" d="M643.09,194.31c-1,0-1.88.36-2.6,1.06-.73.71-1.1,1.61-1.1,2.67v61.71c0,1.07.38,1.98,1.13,2.71.75.73,1.61,1.1,2.57,1.1,1.01,0,1.88-.37,2.58-1.11.69-.73,1.05-1.64,1.05-2.7v-61.71c0-1.06-.34-1.95-1.01-2.66-.68-.71-1.56-1.07-2.62-1.07Z"/>
        <path class="cls-1" d="M720.33,203.76c-3.16-3.19-6.92-5.75-11.18-7.6-4.26-1.86-8.89-2.8-13.74-2.8s-9.4.94-13.66,2.8c-4.26,1.85-8.03,4.41-11.22,7.6-3.18,3.19-5.73,7-7.57,11.33-1.84,4.33-2.77,9-2.77,13.9s.93,9.48,2.77,13.79c1.84,4.3,4.38,8.11,7.56,11.32,3.18,3.21,6.96,5.78,11.22,7.64,4.27,1.86,8.86,2.8,13.66,2.8s9.47-.94,13.74-2.8c4.26-1.85,8.03-4.43,11.18-7.64,3.16-3.21,5.68-7.02,7.49-11.32,1.81-4.3,2.73-8.94,2.73-13.79s-.92-9.56-2.73-13.89c-1.81-4.33-4.33-8.14-7.49-11.33ZM695.42,257.13c-3.89,0-7.57-.75-10.93-2.24-3.37-1.48-6.34-3.54-8.83-6.1-2.49-2.56-4.49-5.59-5.94-8.99-1.45-3.4-2.18-7.04-2.18-10.82s.73-7.59,2.18-11.01c1.45-3.42,3.44-6.45,5.94-8.99,2.49-2.54,5.47-4.56,8.87-6.03,3.39-1.46,7.06-2.2,10.9-2.2s7.64.74,11.01,2.2c3.37,1.46,6.34,3.49,8.83,6.03,2.49,2.54,4.47,5.56,5.9,8.99,1.42,3.43,2.14,7.13,2.14,11.01s-.72,7.43-2.14,10.83c-1.43,3.4-3.41,6.43-5.9,8.99-2.49,2.56-5.46,4.61-8.83,6.1-3.36,1.48-7.07,2.24-11,2.24Z"/>
        <path class="cls-1" d="M803.19,214.11c-1.54-4.11-3.74-7.73-6.54-10.78-2.8-3.05-6.17-5.5-10.02-7.28-3.86-1.79-8.18-2.69-12.84-2.69s-8.95.9-12.91,2.69c-3.95,1.78-7.43,4.23-10.34,7.27-2.92,3.04-5.23,6.67-6.87,10.78-1.64,4.1-2.47,8.54-2.47,13.19v32.62c0,1.07.38,1.97,1.14,2.68.75.7,1.63,1.05,2.63,1.05,1.12,0,2-.37,2.63-1.09.61-.7.92-1.59.92-2.64v-32.47c0-3.74.65-7.27,1.93-10.51,1.28-3.23,3.07-6.08,5.32-8.47,2.25-2.39,4.94-4.29,7.99-5.65,3.05-1.36,6.42-2.05,10.02-2.05s6.93.71,9.9,2.12c2.98,1.41,5.57,3.33,7.7,5.72,2.13,2.39,3.81,5.24,5,8.47,1.19,3.24,1.79,6.75,1.79,10.44v32.4c0,1.07.37,1.97,1.1,2.67.72.7,1.6,1.06,2.6,1.06,1.06,0,1.94-.36,2.62-1.07.67-.71,1.01-1.6,1.01-2.66v-32.62c0-4.64-.78-9.08-2.32-13.18Z"/>
      </g>
      <g>
        <path class="cls-1" d="M82.65,294.29c1.09-1.11,2.4-1.99,3.88-2.63,2.86-1.24,6.29-1.31,9.37-.04,1.49.61,2.87,1.54,4.09,2.74.53.53,1.37.54,1.93-.01.24-.26.37-.57.37-.92s-.13-.67-.39-.95h0c-1.46-1.47-3.12-2.59-4.94-3.33-3.19-1.31-6.74-1.43-9.75-.56-1.29.37-2.51.9-3.61,1.57-1.1.67-2.11,1.48-2.99,2.41-.88.93-1.64,1.95-2.26,3.05-.62,1.1-1.1,2.28-1.43,3.52-.33,1.24-.5,2.53-.5,3.84s.18,2.7.53,3.97c.35,1.26.85,2.46,1.49,3.56.64,1.1,1.42,2.12,2.31,3.02.9.91,1.91,1.69,3,2.33,1.09.64,2.29,1.14,3.55,1.5,1.26.36,2.6.54,3.97.54,1.93,0,3.82-.35,5.63-1.05,1.81-.7,3.49-1.81,4.98-3.3.25-.25.38-.57.38-.95s-.13-.7-.42-.99c-.57-.48-1.38-.43-1.87.06-1.24,1.22-2.61,2.13-4.07,2.7-1.43.55-2.94.84-4.49.84-1.78,0-3.43-.32-4.95-.98-1.48-.66-2.79-1.55-3.87-2.67-1.09-1.11-1.95-2.43-2.56-3.9-.61-1.47-.92-3.04-.92-4.67s.32-3.29.95-4.77c.63-1.48,1.51-2.8,2.6-3.91Z"/>
        <path class="cls-1" d="M123.3,299.02c-.99-.99-2.17-1.78-3.5-2.36-2.66-1.15-5.9-1.16-8.58,0-1.33.57-2.51,1.37-3.51,2.36-1,.99-1.79,2.17-2.37,3.51-.58,1.34-.87,2.79-.87,4.31s.29,2.95.87,4.28c.58,1.33,1.37,2.51,2.37,3.51,1,1,2.18,1.79,3.51,2.37,1.34.58,2.78.87,4.28.87s2.97-.29,4.3-.87c1.33-.58,2.51-1.37,3.5-2.37.99-1,1.78-2.18,2.35-3.51.57-1.34.86-2.78.86-4.28s-.29-2.97-.86-4.31c-.57-1.34-1.36-2.52-2.35-3.51ZM123.83,306.85c0,1.12-.22,2.2-.64,3.2-.43,1.01-1.02,1.91-1.76,2.66-.74.76-1.63,1.37-2.64,1.81-2,.87-4.54.88-6.56,0-1.01-.44-1.9-1.05-2.64-1.81-.75-.76-1.34-1.66-1.78-2.67-.43-1-.65-2.08-.65-3.2s.22-2.25.65-3.26c.43-1.02,1.03-1.91,1.78-2.66.74-.75,1.63-1.35,2.65-1.78,1.01-.43,2.11-.65,3.26-.65s2.29.22,3.29.65c1.01.43,1.9,1.04,2.64,1.78.74.75,1.34,1.65,1.76,2.66.42,1.02.64,2.11.64,3.26Z"/>
        <path class="cls-1" d="M146.73,298.89c-.88-.95-1.94-1.71-3.15-2.26-1.21-.56-2.57-.84-4.03-.84s-2.81.28-4.05.84c-1.24.55-2.33,1.31-3.24,2.26-.92.95-1.64,2.08-2.16,3.35-.52,1.28-.78,2.65-.78,4.09v9.92c0,.38.15.72.42.98.58.53,1.48.48,1.93-.03.23-.26.34-.58.34-.95v-9.87c0-1.11.19-2.16.58-3.11.38-.96.92-1.8,1.59-2.51.67-.7,1.47-1.27,2.38-1.67,1.81-.8,4.16-.81,5.93.02.89.42,1.66.98,2.29,1.69.63.71,1.14,1.55,1.49,2.5.36.96.54,2,.54,3.1v9.85c0,.39.14.71.4.97.26.25.58.38.95.38.39,0,.71-.13.96-.4.25-.26.37-.58.37-.96v-9.92c0-1.44-.25-2.81-.73-4.09-.48-1.28-1.17-2.4-2.05-3.35Z"/>
        <path class="cls-1" d="M171.19,299.02c-.99-.99-2.16-1.78-3.49-2.36-2.66-1.15-5.93-1.15-8.59,0-1.33.57-2.5,1.37-3.5,2.37-1,1-1.79,2.17-2.37,3.5-.58,1.33-.87,2.77-.87,4.29s.29,2.97.87,4.3c.58,1.33,1.37,2.51,2.37,3.51,1,1,2.17,1.79,3.5,2.37,1.33.58,2.77.87,4.29.87,1.75,0,3.31-.34,4.66-1.01,1.33-.67,2.47-1.52,3.37-2.53.4-.38.47-.76.45-1.02-.02-.35-.14-.64-.32-.84-.17-.23-.37-.4-.61-.49-.06-.02-.11-.03-.17-.04-.36-.08-.77.04-1.21.42-.34.44-.74.83-1.19,1.17-.46.35-.96.65-1.51.9-.54.25-1.11.44-1.7.57-1.66.36-3.37.21-4.84-.38-.95-.38-1.8-.92-2.52-1.59-.72-.67-1.32-1.47-1.76-2.38-.39-.79-.64-1.63-.76-2.52h17.81c.39,0,.72-.14.96-.4.24-.26.36-.57.36-.94,0-1.51-.3-2.94-.88-4.27-.58-1.33-1.38-2.5-2.37-3.49ZM171.67,305.71h-16.42c.1-.92.35-1.79.74-2.59.45-.92,1.04-1.74,1.77-2.43.73-.69,1.59-1.23,2.55-1.62,1.91-.77,4.28-.79,6.22,0,.97.39,1.83.93,2.58,1.62.74.68,1.35,1.49,1.8,2.42.4.81.65,1.68.75,2.6Z"/>
        <path class="cls-1" d="M179.53,303.55c.43-.99,1.02-1.88,1.75-2.62.74-.74,1.61-1.35,2.59-1.79,1.86-.84,4.15-.86,6.09-.15.93.34,1.77.86,2.53,1.56.14.12.3.23.47.33.49.27,1.08.21,1.52-.19.3-.26.46-.61.46-1s-.16-.74-.46-1.05c-.91-.93-2.04-1.65-3.34-2.13-2.68-1-5.73-.97-8.29.13-1.32.57-2.49,1.35-3.47,2.34-.98.98-1.77,2.15-2.33,3.46-.57,1.31-.86,2.74-.86,4.25,0,.05,0,.11.02.16l-.02.13c0,1.49.29,2.91.86,4.24.57,1.32,1.35,2.49,2.33,3.47.98.98,2.15,1.77,3.47,2.34,1.32.57,2.75.86,4.24.86,1.4,0,2.76-.26,4.06-.77,1.3-.52,2.42-1.25,3.33-2.17.31-.31.47-.66.47-1.05s-.15-.73-.43-.99c-.45-.42-1.03-.48-1.55-.18-.18.1-.34.21-.48.34-.76.72-1.62,1.26-2.56,1.61-1.98.73-4.29.71-6.16-.16-.98-.45-1.84-1.07-2.55-1.83-.72-.76-1.29-1.65-1.7-2.64-.41-.99-.62-2.04-.62-3.12,0-.03,0-.06-.01-.1,0-.03.01-.06.01-.1,0-1.11.21-2.17.64-3.16Z"/>
        <path class="cls-1" d="M216.03,312.78c-.07.02-.15.05-.28.1-.19.1-.34.2-.43.3-.81.71-1.67,1.23-2.55,1.54-1.87.66-4.28.63-6.21-.15-1.02-.41-1.92-.99-2.67-1.71s-1.36-1.58-1.79-2.56c-.43-.98-.65-2.05-.65-3.18v-8.36h10.24c.4,0,.73-.13.99-.39.26-.26.39-.58.39-.95s-.15-.7-.42-.96c-.27-.25-.59-.38-.96-.38h-10.24v-6.04c0-.4-.12-.73-.37-.99-.49-.51-1.38-.53-1.92,0-.27.26-.4.59-.4.98v17.07c0,1.52.29,2.96.87,4.27.58,1.31,1.38,2.46,2.39,3.42,1.01.95,2.2,1.71,3.54,2.25,1.34.54,2.79.82,4.31.82,1.39,0,2.72-.23,3.95-.69,1.23-.46,2.33-1.15,3.28-2.05.27-.27.43-.6.48-.98.05-.42-.08-.79-.4-1.08-.31-.28-.76-.38-1.13-.29Z"/>
        <path class="cls-1" d="M237.63,299c-.99-.99-2.16-1.78-3.48-2.35-2.64-1.13-5.88-1.15-8.56.01-1.33.57-2.51,1.37-3.51,2.36-1,.99-1.79,2.17-2.37,3.51-.58,1.34-.87,2.79-.87,4.31s.29,2.95.87,4.28c.58,1.33,1.37,2.51,2.37,3.51,1,1,2.18,1.79,3.51,2.37,1.34.58,2.78.87,4.28.87.92,0,1.83-.12,2.7-.36.87-.24,1.7-.57,2.45-.99.76-.42,1.47-.93,2.12-1.52.37-.34.72-.7,1.04-1.08l.02,2.26c0,.39.12.72.35.98.49.56,1.46.54,1.95,0,.24-.26.37-.6.37-.99v-9.43c-.01-1.52-.31-2.96-.89-4.28-.58-1.32-1.37-2.49-2.36-3.48ZM238.21,306.85c0,1.12-.22,2.2-.64,3.2-.43,1.01-1.02,1.91-1.76,2.66-.74.76-1.63,1.37-2.64,1.81-2,.87-4.54.88-6.56,0-1.01-.44-1.9-1.05-2.64-1.81-.75-.76-1.34-1.66-1.78-2.67-.43-1-.65-2.08-.65-3.2s.22-2.25.65-3.26c.43-1.02,1.03-1.91,1.78-2.66.74-.75,1.63-1.35,2.65-1.78,1.01-.43,2.11-.65,3.26-.65s2.29.22,3.29.65c1.01.43,1.9,1.04,2.64,1.78.74.75,1.34,1.65,1.76,2.66.42,1.02.64,2.11.64,3.26Z"/>
        <path class="cls-1" d="M272.75,312.78c-.07.02-.15.05-.28.1-.19.1-.34.2-.43.3-.81.71-1.67,1.23-2.55,1.54-1.87.66-4.28.63-6.21-.15-1.02-.41-1.92-.99-2.67-1.71s-1.36-1.58-1.79-2.56c-.43-.98-.65-2.05-.65-3.18v-8.36h10.24c.4,0,.73-.13.99-.39.26-.26.39-.58.39-.95s-.15-.7-.42-.96c-.27-.25-.59-.38-.96-.38h-10.24v-6.04c0-.4-.12-.73-.37-.99-.49-.51-1.38-.53-1.92,0-.27.26-.4.59-.4.98v17.07c0,1.52.29,2.96.87,4.27.58,1.31,1.38,2.46,2.39,3.42,1.01.95,2.2,1.71,3.54,2.25,1.34.54,2.79.82,4.31.82,1.39,0,2.72-.23,3.95-.69,1.23-.46,2.33-1.15,3.28-2.05.27-.27.43-.6.48-.98.05-.42-.08-.79-.4-1.08-.31-.28-.76-.38-1.13-.29Z"/>
        <path class="cls-1" d="M294.82,296.47c-.25.27-.38.59-.38.97v9.72c0,1.08-.18,2.13-.53,3.1-.35.97-.84,1.83-1.47,2.56-.62.72-1.39,1.31-2.28,1.73-1.76.83-4.12.85-5.96,0-.92-.43-1.73-1-2.4-1.72-.67-.71-1.21-1.56-1.59-2.51-.38-.95-.58-1.97-.58-3.03v-9.85c0-.4-.13-.73-.39-.99-.51-.49-1.36-.49-1.89,0-.27.25-.41.58-.41.99v9.87c0,1.44.26,2.82.78,4.09.51,1.27,1.24,2.4,2.15,3.36.91.95,2.01,1.72,3.26,2.27,1.25.55,2.62.84,4.06.84s2.82-.28,4.03-.84c1.21-.56,2.27-1.33,3.14-2.29.87-.96,1.55-2.1,2.04-3.38.48-1.28.73-2.66.73-4.1v-9.83c0-.4-.12-.73-.37-.98-.52-.55-1.44-.51-1.94.01Z"/>
        <path class="cls-1" d="M330.11,299.02c-.99-.99-2.17-1.78-3.5-2.36-2.66-1.15-5.9-1.16-8.58,0-1.33.57-2.51,1.37-3.51,2.36-1,.99-1.8,2.17-2.37,3.51-.58,1.34-.87,2.8-.87,4.31v16.93c0,.39.14.72.42.99.27.26.6.39.96.39.39,0,.72-.14.96-.42.23-.26.35-.59.35-.96v-9.74c.32.37.67.72,1.04,1.05.65.57,1.37,1.07,2.14,1.49.77.42,1.6.74,2.46.96,2.3.59,4.85.39,7-.53,1.33-.58,2.51-1.37,3.5-2.37.99-1,1.78-2.18,2.35-3.51.57-1.34.86-2.78.86-4.28s-.29-2.97-.86-4.31c-.57-1.34-1.36-2.52-2.35-3.51ZM330.64,306.85c0,1.12-.22,2.2-.64,3.2-.43,1.01-1.02,1.91-1.76,2.66-.74.76-1.63,1.37-2.64,1.81-2,.87-4.54.88-6.56,0-1.01-.44-1.9-1.05-2.64-1.81-.75-.76-1.34-1.66-1.78-2.67-.43-1-.65-2.08-.65-3.2s.22-2.25.65-3.26c.43-1.02,1.03-1.91,1.78-2.66.74-.75,1.63-1.35,2.65-1.78,1.01-.43,2.11-.65,3.26-.65s2.29.22,3.29.65c1.01.43,1.9,1.04,2.64,1.78.74.75,1.34,1.65,1.76,2.66.42,1.02.64,2.11.64,3.26Z"/>
        <path class="cls-1" d="M354.08,299c-.99-.99-2.16-1.78-3.48-2.35-2.64-1.13-5.88-1.15-8.56.01-1.33.57-2.51,1.37-3.51,2.36-1,.99-1.79,2.17-2.37,3.51-.58,1.34-.87,2.79-.87,4.31s.29,2.95.87,4.28c.58,1.33,1.37,2.51,2.37,3.51,1,1,2.18,1.79,3.51,2.37,1.34.58,2.78.87,4.28.87.92,0,1.83-.12,2.7-.36.87-.24,1.7-.57,2.45-.99.76-.42,1.47-.93,2.12-1.52.37-.34.72-.7,1.04-1.08l.02,2.26c0,.39.12.72.35.98.49.56,1.46.54,1.95,0,.24-.26.37-.6.37-.99v-9.43c-.01-1.52-.31-2.96-.89-4.28-.58-1.32-1.37-2.49-2.36-3.48ZM354.66,306.85c0,1.12-.22,2.2-.64,3.2-.43,1.01-1.02,1.91-1.76,2.66-.74.76-1.63,1.37-2.64,1.81-2,.87-4.54.88-6.56,0-1.01-.44-1.9-1.05-2.64-1.81-.75-.76-1.34-1.66-1.78-2.67-.43-1-.65-2.08-.65-3.2s.22-2.25.65-3.26c.43-1.02,1.03-1.91,1.78-2.66.74-.75,1.63-1.35,2.65-1.78,1.01-.43,2.11-.65,3.26-.65s2.29.22,3.29.65c1.01.43,1.9,1.04,2.64,1.78.74.75,1.34,1.65,1.76,2.66.42,1.02.64,2.11.64,3.26Z"/>
        <path class="cls-1" d="M373.91,307.26c-.7-.48-1.52-.9-2.44-1.25-.9-.34-1.85-.66-2.84-.96-.61-.18-1.19-.37-1.74-.57-.53-.19-1.01-.44-1.41-.72-.39-.27-.7-.59-.92-.95-.21-.35-.32-.78-.32-1.29,0-.58.13-1.06.38-1.44.26-.4.61-.72,1.02-.96.43-.25.92-.43,1.46-.54,1.58-.32,3.12-.18,4.24.33.71.33,1.39.91,2,1.74l.13.11c.57.28,1.05.16,1.44-.23.18-.17.29-.4.33-.68.04-.27,0-.55-.15-.84-.62-1.12-1.52-1.96-2.69-2.47-1.86-.82-4.17-1-6.31-.42-.84.23-1.61.58-2.27,1.05-.68.48-1.23,1.08-1.64,1.79-.42.72-.63,1.58-.63,2.56,0,.88.18,1.65.54,2.3.35.64.82,1.19,1.39,1.65.56.45,1.2.83,1.91,1.14.68.29,1.38.56,2.08.78h.01c.84.24,1.65.49,2.4.76.74.26,1.4.56,1.96.9.55.33.98.71,1.3,1.13.3.39.45.84.45,1.37s-.13,1.02-.38,1.46c-.26.45-.61.84-1.05,1.17-.45.33-.97.6-1.55.78-.58.19-1.19.28-1.82.28-1.25,0-2.34-.23-3.24-.68-.89-.44-1.58-1.08-2.04-1.9l-.06-.08c-.72-.72-1.8-.7-2.26.05-.23.38-.22.84.03,1.35.33.66.76,1.25,1.29,1.74.52.49,1.12.89,1.78,1.21.66.32,1.38.56,2.14.71.76.15,1.54.23,2.34.23,1.02,0,2-.16,2.89-.48.9-.32,1.7-.76,2.38-1.31.68-.56,1.23-1.23,1.63-1.99.4-.77.6-1.62.6-2.53,0-.97-.22-1.82-.65-2.52-.42-.68-1-1.28-1.71-1.78Z"/>
        <path class="cls-1" d="M380.41,290.79c-.33.32-.49.73-.49,1.22,0,.44.16.83.49,1.16.33.32.71.49,1.16.49.49,0,.9-.16,1.23-.49.32-.33.49-.72.49-1.16,0-.49-.17-.9-.49-1.22-.62-.6-1.69-.66-2.38,0Z"/>
        <path class="cls-1" d="M380.64,296.47c-.27.26-.4.59-.4.97v18.76c0,.39.14.72.42.98.27.26.59.4.94.4.37,0,.69-.14.95-.41.25-.27.38-.59.38-.97v-18.76c0-.38-.12-.7-.37-.96-.49-.51-1.37-.53-1.92-.01Z"/>
        <path class="cls-1" d="M398.66,293.44c.4,0,.75-.15,1.01-.43l4.05-4.09c.26-.28.39-.6.39-.95s-.14-.68-.43-.97c-.54-.5-1.36-.49-1.91.06l-4.05,4.1c-.26.28-.39.61-.38.97.01.35.14.66.39.93.25.25.57.38.94.38Z"/>
        <path class="cls-1" d="M405.46,299.02c-.99-.99-2.17-1.78-3.5-2.36-2.66-1.15-5.9-1.16-8.58,0-1.33.57-2.51,1.37-3.51,2.36-1,.99-1.79,2.17-2.37,3.51-.58,1.34-.87,2.79-.87,4.31s.29,2.95.87,4.28c.58,1.33,1.37,2.51,2.37,3.51,1,1,2.18,1.79,3.51,2.37,1.34.58,2.78.87,4.28.87s2.97-.29,4.3-.87c1.33-.58,2.51-1.37,3.5-2.37.99-1,1.78-2.18,2.35-3.51.57-1.34.86-2.78.86-4.28s-.29-2.97-.86-4.31c-.57-1.34-1.36-2.52-2.35-3.51ZM405.99,306.85c0,1.12-.22,2.2-.64,3.2-.43,1.01-1.02,1.91-1.76,2.66-.74.76-1.63,1.37-2.64,1.81-2,.87-4.54.88-6.56,0-1.01-.44-1.9-1.05-2.64-1.81-.75-.76-1.34-1.66-1.78-2.67-.43-1-.65-2.08-.65-3.2s.22-2.25.65-3.26c.43-1.02,1.03-1.91,1.78-2.66.74-.75,1.63-1.35,2.65-1.78,1.01-.43,2.11-.65,3.26-.65s2.29.22,3.29.65c1.01.43,1.9,1.04,2.64,1.78.74.75,1.34,1.65,1.76,2.66.42,1.02.64,2.11.64,3.26Z"/>
        <path class="cls-1" d="M428.93,298.89c-.88-.95-1.94-1.71-3.15-2.26-1.21-.56-2.57-.84-4.03-.84s-2.81.28-4.05.84c-1.24.55-2.33,1.31-3.24,2.26-.92.95-1.64,2.08-2.16,3.35-.52,1.28-.78,2.65-.78,4.09v9.92c0,.38.15.72.42.98.58.53,1.48.48,1.93-.03.23-.26.34-.58.34-.95v-9.87c0-1.11.19-2.16.58-3.11.38-.96.92-1.8,1.59-2.51.67-.7,1.47-1.27,2.38-1.67,1.81-.8,4.16-.81,5.93.02.89.42,1.66.98,2.29,1.69.63.71,1.14,1.55,1.49,2.5.36.96.54,2,.54,3.1v9.85c0,.39.14.71.4.97.26.25.58.38.95.38.39,0,.71-.13.96-.4.25-.26.37-.58.37-.96v-9.92c0-1.44-.25-2.81-.73-4.09-.48-1.28-1.17-2.4-2.05-3.35Z"/>
        <path class="cls-1" d="M436.29,313.53c-.26.26-.38.59-.38.98v7.66c0,.38.13.71.39.97.26.26.58.39.97.39s.71-.14.96-.4c.25-.26.37-.58.37-.96v-7.66c0-.38-.12-.71-.37-.97-.5-.54-1.42-.54-1.94,0Z"/>
        <path class="cls-1" d="M470.74,312.78c-.07.02-.15.05-.28.1-.19.1-.34.2-.43.3-.81.71-1.67,1.23-2.55,1.54-1.87.66-4.28.63-6.21-.15-1.02-.41-1.92-.99-2.67-1.71s-1.36-1.58-1.79-2.56c-.43-.98-.65-2.05-.65-3.18v-8.36h10.24c.4,0,.73-.13.99-.39.26-.26.39-.58.39-.95s-.15-.7-.42-.96c-.27-.25-.59-.38-.96-.38h-10.24v-6.04c0-.4-.12-.73-.37-.99-.49-.51-1.38-.53-1.92,0-.27.26-.4.59-.4.98v17.07c0,1.52.29,2.96.87,4.27.58,1.31,1.38,2.46,2.39,3.42,1.01.95,2.2,1.71,3.54,2.25,1.34.54,2.79.82,4.31.82,1.39,0,2.72-.23,3.95-.69,1.23-.46,2.33-1.15,3.28-2.05.27-.27.43-.6.48-.98.05-.42-.08-.79-.4-1.08-.31-.28-.76-.38-1.13-.29Z"/>
        <path class="cls-1" d="M492.38,299.02c-.99-.99-2.17-1.78-3.5-2.36-2.66-1.15-5.9-1.16-8.58,0-1.33.57-2.51,1.37-3.51,2.36-1,.99-1.79,2.17-2.37,3.51-.58,1.34-.87,2.79-.87,4.31s.29,2.95.87,4.28c.58,1.33,1.37,2.51,2.37,3.51,1,1,2.18,1.79,3.51,2.37,1.34.58,2.78.87,4.28.87s2.97-.29,4.3-.87c1.33-.58,2.51-1.37,3.5-2.37.99-1,1.78-2.18,2.35-3.51.57-1.34.86-2.78.86-4.28s-.29-2.97-.86-4.31c-.57-1.34-1.36-2.52-2.35-3.51ZM492.91,306.85c0,1.12-.22,2.2-.64,3.2-.43,1.01-1.02,1.91-1.76,2.66-.74.76-1.63,1.37-2.64,1.81-2,.87-4.54.88-6.56,0-1.01-.44-1.9-1.05-2.64-1.81-.75-.76-1.34-1.66-1.78-2.67-.43-1-.65-2.08-.65-3.2s.22-2.25.65-3.26c.43-1.02,1.03-1.91,1.78-2.66.74-.75,1.63-1.35,2.65-1.78,1.01-.43,2.11-.65,3.26-.65s2.29.22,3.29.65c1.01.43,1.9,1.04,2.64,1.78.74.75,1.34,1.65,1.76,2.66.42,1.02.64,2.11.64,3.26Z"/>
        <path class="cls-1" d="M500.82,303.55c.43-.99,1.02-1.88,1.75-2.62.74-.74,1.61-1.35,2.59-1.79,1.86-.84,4.15-.86,6.09-.15.93.34,1.77.86,2.53,1.56.14.12.3.23.47.33.49.27,1.08.21,1.52-.19.3-.26.46-.61.46-1s-.16-.74-.46-1.05c-.91-.93-2.04-1.65-3.34-2.13-2.68-1-5.73-.97-8.29.13-1.32.57-2.49,1.35-3.47,2.34-.98.98-1.77,2.15-2.33,3.46-.57,1.31-.86,2.74-.86,4.25,0,.05,0,.11.02.16l-.02.13c0,1.49.29,2.91.86,4.24.57,1.32,1.35,2.49,2.33,3.47.98.98,2.15,1.77,3.47,2.34,1.32.57,2.75.86,4.24.86,1.4,0,2.76-.26,4.06-.77,1.3-.52,2.42-1.25,3.33-2.17.31-.31.47-.66.47-1.05s-.15-.73-.43-.99c-.45-.42-1.03-.48-1.55-.18-.18.1-.34.21-.48.34-.76.72-1.62,1.26-2.56,1.61-1.98.73-4.29.71-6.16-.16-.98-.45-1.84-1.07-2.55-1.83-.72-.76-1.29-1.65-1.7-2.64-.41-.99-.62-2.04-.62-3.12,0-.03,0-.06-.01-.1,0-.03.01-.06.01-.1,0-1.11.21-2.17.64-3.16Z"/>
        <path class="cls-1" d="M537.55,299c-.99-.99-2.16-1.78-3.48-2.35-2.64-1.13-5.88-1.15-8.56.01-1.33.57-2.51,1.37-3.51,2.36-1,.99-1.79,2.17-2.37,3.51-.58,1.34-.87,2.79-.87,4.31s.29,2.95.87,4.28c.58,1.33,1.37,2.51,2.37,3.51,1,1,2.18,1.79,3.51,2.37,1.34.58,2.78.87,4.28.87.92,0,1.83-.12,2.7-.36.87-.24,1.7-.57,2.45-.99.76-.42,1.47-.93,2.12-1.52.37-.34.72-.7,1.04-1.08l.02,2.26c0,.39.12.72.35.98.49.56,1.46.54,1.95,0,.24-.26.37-.6.37-.99v-9.43c-.01-1.52-.31-2.96-.89-4.28-.58-1.32-1.37-2.49-2.36-3.48ZM538.12,306.85c0,1.12-.22,2.2-.64,3.2-.43,1.01-1.02,1.91-1.76,2.66-.74.76-1.63,1.37-2.64,1.81-2,.87-4.54.88-6.56,0-1.01-.44-1.9-1.05-2.64-1.81-.75-.76-1.34-1.66-1.78-2.67-.43-1-.65-2.08-.65-3.2s.22-2.25.65-3.26c.43-1.02,1.03-1.91,1.78-2.66.74-.75,1.63-1.35,2.65-1.78,1.01-.43,2.11-.65,3.26-.65s2.29.22,3.29.65c1.01.43,1.9,1.04,2.64,1.78.74.75,1.34,1.65,1.76,2.66.42,1.02.64,2.11.64,3.26Z"/>
        <path class="cls-1" d="M572.67,312.78c-.07.02-.15.05-.28.1-.19.1-.34.2-.43.3-.81.71-1.67,1.23-2.55,1.54-1.87.66-4.28.63-6.21-.15-1.02-.41-1.92-.99-2.67-1.71s-1.36-1.58-1.79-2.56c-.43-.98-.65-2.05-.65-3.18v-8.36h10.24c.4,0,.73-.13.99-.39.26-.26.39-.58.39-.95s-.15-.7-.42-.96c-.27-.25-.59-.38-.96-.38h-10.24v-6.04c0-.4-.12-.73-.37-.99-.49-.51-1.38-.53-1.92,0-.27.26-.4.59-.4.98v17.07c0,1.52.29,2.96.87,4.27.58,1.31,1.38,2.46,2.39,3.42,1.01.95,2.2,1.71,3.54,2.25,1.34.54,2.79.82,4.31.82,1.39,0,2.72-.23,3.95-.69,1.23-.46,2.33-1.15,3.28-2.05.27-.27.43-.6.48-.98.05-.42-.08-.79-.4-1.08-.31-.28-.76-.38-1.13-.29Z"/>
        <path class="cls-1" d="M594.73,296.47c-.25.27-.38.59-.38.97v9.72c0,1.08-.18,2.13-.53,3.1-.35.97-.84,1.83-1.47,2.56-.62.72-1.39,1.31-2.28,1.73-1.76.83-4.12.85-5.96,0-.92-.43-1.73-1-2.4-1.72-.67-.71-1.21-1.56-1.59-2.51-.38-.95-.58-1.97-.58-3.03v-9.85c0-.4-.13-.73-.39-.99-.51-.49-1.36-.49-1.89,0-.27.25-.41.58-.41.99v9.87c0,1.44.26,2.82.78,4.09.51,1.27,1.24,2.4,2.15,3.36.91.95,2.01,1.72,3.26,2.27,1.25.55,2.62.84,4.06.84s2.82-.28,4.03-.84c1.21-.56,2.27-1.33,3.14-2.29.87-.96,1.55-2.1,2.04-3.38.48-1.28.73-2.66.73-4.1v-9.83c0-.4-.12-.73-.37-.98-.52-.55-1.44-.51-1.94.01Z"/>
        <path class="cls-1" d="M619.9,288.04h-.1c-.91.02-1.78.21-2.57.57-.79.36-1.5.85-2.09,1.46-.59.61-1.07,1.33-1.42,2.14-.35.81-.53,1.68-.54,2.59v3.45h-2.24c-.38,0-.71.13-.97.39-.25.25-.39.58-.39.95,0,.39.13.71.39.96.26.25.58.37.96.37h2.24v15.28c0,.4.13.73.39.99.26.26.58.39.95.39s.69-.13.95-.39c.26-.26.39-.59.39-.99v-15.28h2.91c.37,0,.68-.13.94-.37.26-.25.39-.58.39-.96,0-.36-.13-.69-.39-.95-.26-.26-.58-.39-.95-.39h-2.91v-3.44c.01-.56.13-1.09.34-1.58.21-.49.5-.93.86-1.29.36-.37.79-.66,1.29-.88.49-.22,1.03-.33,1.62-.33.38-.02.69-.15.94-.4.25-.25.38-.56.38-.91,0-.4-.13-.73-.39-.99-.26-.26-.59-.39-.99-.39Z"/>
        <path class="cls-1" d="M641.33,296.47c-.25.27-.38.59-.38.97v9.72c0,1.08-.18,2.13-.53,3.1-.35.97-.84,1.83-1.47,2.56-.62.72-1.39,1.31-2.28,1.73-1.76.83-4.12.85-5.96,0-.92-.43-1.73-1-2.4-1.72-.67-.71-1.21-1.56-1.59-2.51-.38-.95-.58-1.97-.58-3.03v-9.85c0-.4-.13-.73-.39-.99-.51-.49-1.36-.49-1.89,0-.27.25-.41.58-.41.99v9.87c0,1.44.26,2.82.78,4.09.51,1.27,1.24,2.4,2.15,3.36.91.95,2.01,1.72,3.26,2.27,1.25.55,2.62.84,4.06.84s2.82-.28,4.03-.84c1.21-.56,2.27-1.33,3.14-2.29.87-.96,1.55-2.1,2.04-3.38.48-1.28.73-2.66.73-4.1v-9.83c0-.4-.12-.73-.37-.98-.52-.55-1.44-.51-1.94.01Z"/>
        <path class="cls-1" d="M665.4,312.78c-.07.02-.15.05-.28.1-.19.1-.34.2-.43.3-.81.71-1.67,1.23-2.55,1.54-1.87.66-4.28.63-6.21-.15-1.02-.41-1.92-.99-2.67-1.71s-1.36-1.58-1.79-2.56c-.43-.98-.65-2.05-.65-3.18v-8.36h10.24c.4,0,.73-.13.99-.39.26-.26.39-.58.39-.95s-.15-.7-.42-.96c-.27-.25-.59-.38-.96-.38h-10.24v-6.04c0-.4-.12-.73-.37-.99-.49-.51-1.38-.53-1.92,0-.27.26-.4.59-.4.98v17.07c0,1.52.29,2.96.87,4.27.58,1.31,1.38,2.46,2.39,3.42,1.01.95,2.2,1.71,3.54,2.25,1.34.54,2.79.82,4.31.82,1.39,0,2.72-.23,3.95-.69,1.23-.46,2.33-1.15,3.28-2.05.27-.27.43-.6.48-.98.05-.42-.08-.79-.4-1.08-.31-.28-.76-.38-1.13-.29Z"/>
        <path class="cls-1" d="M687.46,296.47c-.25.27-.38.59-.38.97v9.72c0,1.08-.18,2.13-.53,3.1-.35.97-.84,1.83-1.47,2.56-.62.72-1.39,1.31-2.28,1.73-1.76.83-4.12.85-5.96,0-.92-.43-1.73-1-2.4-1.72-.67-.71-1.21-1.56-1.59-2.51-.38-.95-.58-1.97-.58-3.03v-9.85c0-.4-.13-.73-.39-.99-.51-.49-1.36-.49-1.89,0-.27.25-.41.58-.41.99v9.87c0,1.44.26,2.82.78,4.09.51,1.27,1.24,2.4,2.15,3.36.91.95,2.01,1.72,3.26,2.27,1.25.55,2.62.84,4.06.84s2.82-.28,4.03-.84c1.21-.56,2.27-1.33,3.14-2.29.87-.96,1.55-2.1,2.04-3.38.48-1.28.73-2.66.73-4.1v-9.83c0-.4-.12-.73-.37-.98-.52-.55-1.44-.51-1.94.01Z"/>
        <path class="cls-1" d="M705.77,296.08h-.22c-1.56,0-3.05.31-4.43.91-1.37.61-2.58,1.44-3.6,2.47-1.02,1.03-1.84,2.25-2.43,3.63-.6,1.38-.9,2.87-.9,4.44v8.69c0,.39.14.71.4.97.26.25.6.38,1,.38.35,0,.67-.14.92-.4.25-.26.37-.58.37-.96v-8.69c0-1.21.23-2.36.69-3.43.46-1.07,1.1-2.01,1.88-2.8.78-.79,1.71-1.42,2.76-1.87,1.05-.45,2.17-.68,3.34-.68h.22c.38,0,.71-.12.97-.37.27-.25.41-.58.41-.97s-.12-.7-.36-.95c-.24-.25-.59-.38-1.02-.38Z"/>
        <path class="cls-1" d="M728.68,302.53c-.57-1.34-1.36-2.52-2.35-3.51-.99-.99-2.17-1.78-3.5-2.36-2.66-1.15-5.9-1.16-8.58,0-1.33.57-2.51,1.37-3.51,2.36-1,.99-1.79,2.17-2.37,3.51-.58,1.34-.87,2.79-.87,4.31s.29,2.95.87,4.28c.58,1.33,1.37,2.51,2.37,3.51,1,1,2.18,1.79,3.51,2.37,1.34.58,2.78.87,4.28.87s2.97-.29,4.3-.87c1.33-.58,2.51-1.37,3.5-2.37.99-1,1.78-2.18,2.35-3.51.57-1.34.86-2.78.86-4.28s-.29-2.97-.86-4.31ZM726.86,306.85c0,1.12-.22,2.2-.64,3.2-.43,1.01-1.02,1.91-1.76,2.66-.74.76-1.63,1.37-2.64,1.81-2,.87-4.54.88-6.56,0-1.01-.44-1.9-1.05-2.64-1.81-.75-.76-1.34-1.66-1.78-2.67-.43-1-.65-2.08-.65-3.2s.22-2.25.65-3.26c.43-1.02,1.03-1.91,1.78-2.66.74-.75,1.63-1.35,2.65-1.78,1.01-.43,2.11-.65,3.26-.65s2.29.22,3.29.65c1.01.43,1.9,1.04,2.64,1.78.74.75,1.34,1.65,1.76,2.66.42,1.02.64,2.11.64,3.26Z"/>
      </g>
      <g>
        <path class="cls-1" d="M584.33,63.45v44.49c-.96,0-1.8,0-2.65,0-37.44.1-74.88.21-112.31.31-9.32.03-18.64,0-27.96.09-1.86.02-3.28-.35-4.06-2.17-.18-.43-.46-.89-.83-1.15-3.91-2.73-4.15-6.66-4.08-10.97.14-9.16-.08-18.32-.13-27.48,0-1.01.1-2.03.16-3.12h151.86ZM548.89,85.26c-.03-8.85-7.14-15.58-16.45-15.58-9.52,0-16.14,6.85-16.06,16.63.08,9.47,6.52,15.75,16.06,15.66,9.55-.09,16.48-7.13,16.45-16.71ZM493.29,101.72c9.51-.05,16.4-6.83,16.38-16.12-.02-8.87-7.28-16.06-16.16-16.01-8.76.05-15.82,7.39-15.78,16.43.04,9.27,6.45,15.74,15.56,15.7ZM439.62,85.99c-.11,8.79,6.37,15.49,15.15,15.63,9.63.16,16.58-6.47,16.74-15.98.14-8.04-7.4-15.98-15.24-16.06-9.71-.09-16.52,6.61-16.64,16.4Z"/>
        <path class="cls-1" d="M533.73,116.59c-1.4,4.34-2.64,8.34-4.01,12.29-.17.49-.97.88-1.55,1.06-.58.18-1.26.05-1.9.05-76.26,0-152.53-.01-228.79.06-2.37,0-3.6-.54-4.19-2.95-.87-3.52-2.1-6.95-3.23-10.61h47.02c.45,1.1.81,2.24,1.36,3.26,2.99,5.6,9.64,6.44,13.95,1.78.54-.58,1.17-1.18,1.44-1.89,1.18-3.15,3.47-3.58,6.57-3.55,18.81.15,37.61.09,56.42.04,1.68,0,2.67.4,3.63,1.91,3.99,6.27,13.04,6.17,16.96-.11,1.03-1.65,2.27-1.8,4.17-1.75,8.74.23,17.5.09,26.24.12,21.04.08,42.07.19,63.11.28.77,0,1.55,0,2.81,0Z"/>
        <path class="cls-1" d="M290.18,54.84c1.38-4.22,2.68-8.27,4.05-12.3.11-.32.69-.59,1.09-.66.62-.11,1.27-.04,1.91-.04,76.43,0,152.85,0,229.28-.05,2.17,0,3.28.47,3.83,2.71.83,3.38,2.04,6.67,3.19,10.34-1.14.06-1.97.15-2.8.15-29.81.03-59.61.04-89.42.11-2.46,0-4.25-.52-5.81-2.77-2.73-3.92-9.64-3.63-12.74.45-1.44,1.89-3.02,2.5-5.27,2.49-9.32-.06-18.65-.04-27.97.06-1.97.02-3.19-.49-4.1-2.42-1.86-3.92-5.32-5.63-9.54-5.57-4.13.06-6.81,2.38-8.24,6.15-.42,1.1-.9,1.64-2.19,1.64-24.55-.04-49.09-.03-73.64-.04-.38,0-.76-.11-1.64-.24Z"/>
        <path class="cls-1" d="M317.54,107.81h-23.12v-44.47c.95,0,1.8,0,2.65,0,22.14.08,44.29.15,66.43.24,5.78.02,7.89,2.17,7.89,7.96,0,11.39,0,22.78,0,34.17v2.58c-5.52,0-10.83.06-16.14-.06-.8-.02-1.72-.76-2.34-1.4-3.78-3.86-7.06-4.19-11.32-.91-2.42,1.86-5.2,2.25-8.1,2.32-.71.02-1.43-.05-2.15-.11-5.65-.47-5.4-.48-5.59-6.07-.12-3.67.9-6.24,3.7-8.7,4.2-3.69,3.47-11.36-1.03-15.36-3.76-3.33-10.25-3.92-14.26-1.29-4.34,2.86-6.19,8.64-4.35,13.73.93,2.58,2.57,4.67,5.14,5.68,2.39.94,2.97,2.42,2.64,4.85-.29,2.18-.06,4.42-.06,6.84ZM341.09,86.16c.16,6.93,4.48,11.32,10.99,11.15,6.27-.16,11.52-5.3,11.36-11.12-.19-6.75-5.29-11.53-12.13-11.37-5.72.13-10.36,5.28-10.22,11.34Z"/>
        <path class="cls-1" d="M424.48,63.25c0,6.69-.01,13.05,0,19.4.01,5.09-.03,10.19.12,15.28.06,2.04-.6,3.55-1.81,5.17-2.84,3.83-6.11,5.58-11.19,5.35-10.56-.49-21.15-.15-32.07-.15v-2.64c0-11.46.03-22.92-.04-34.39-.01-1.66.62-2.69,1.68-3.91,2.88-3.35,6.28-4.38,10.69-4.23,9.78.33,19.58.1,29.37.1.86,0,1.73,0,3.25,0ZM401.21,100.66c9.4.04,16.11-6.11,16.15-14.79.04-8.95-6.75-15.51-16.08-15.53-8.17-.01-14.97,6.49-15.05,14.4-.1,9.83,5.6,15.88,14.98,15.91Z"/>
        <path class="cls-1" d="M605.92,120.58c-1.92-.18-3.8-.36-5.81-.56-.07-4.78-3.84-5.11-7.42-6.16v-2.2c0-17.05.03-34.1-.04-51.15,0-1.78.37-2.75,2.24-3.18,2.84-.65,4.76-2.49,5.58-5.36,1.81-.21,3.53-.41,5.45-.64v69.23Z"/>
        <path class="cls-1" d="M234.3,63.64h13.6v44.11h-13.6v-44.11Z"/>
        <path class="cls-1" d="M285.9,107.78h-13.35v-44.3h13.35v44.3Z"/>
        <path class="cls-1" d="M199.66,63.43h25.8v44.24h-25.8v-44.24Z"/>
        <path class="cls-1" d="M268.56,23.3c-6.79-.08-12.21-5.4-12.08-11.86.12-6.23,5.68-11.12,12.07-11.44,5.32-.27,11.98,5.21,11.89,12.42-.08,6.15-5.4,10.96-11.88,10.88Z"/>
        <path class="cls-1" d="M256.48,63.48h7.86v44.24h-7.86v-44.24Z"/>
        <path class="cls-1" d="M541.23,86.2c.02,4.64-3.6,8.25-8.3,8.29-5.17.04-9.33-3.76-9.36-8.53-.03-4.59,3.85-8.62,8.41-8.72,4.87-.11,9.23,4.11,9.25,8.96Z"/>
        <path class="cls-1" d="M485.18,85.72c.01-4.37,3.89-8.46,8.07-8.49,4.87-.04,9.12,4.15,9.06,8.92-.05,4.38-4.14,8.34-8.56,8.28-4.86-.06-8.58-3.85-8.57-8.72Z"/>
        <path class="cls-1" d="M454.95,77.25c4.95-.03,9.2,4.01,9.21,8.75.02,4.52-4,8.46-8.59,8.42-4.56-.04-8.26-3.81-8.27-8.43-.02-5.19,3.07-8.72,7.65-8.75Z"/>
        <path class="cls-1" d="M409.68,85.81c-.02,4.57-3.65,8.17-8.21,8.13-4.12-.04-7.81-3.83-7.86-8.09-.05-4.61,3.4-8.21,7.83-8.14,4.67.07,8.25,3.59,8.24,8.1Z"/>
      </g>
    </g>
  </g>
</svg>