<?xml version="1.0" encoding="UTF-8"?>
<svg id="Layer_2" data-name="Layer 2" xmlns="http://www.w3.org/2000/svg" viewBox="0 0 655.06 209.7">
  <defs>
    <style>
      .cls-1 {
        fill: #fff;
      }
    </style>
  </defs>
  <g id="Capa_1" data-name="Capa 1">
    <g>
      <path class="cls-1" d="M620.26,102.3v71.73c-1.55,0-2.91,0-4.27,0-60.37.17-120.73.34-181.1.5-15.03.04-30.05,0-45.08.15-3,.03-5.28-.56-6.55-3.51-.3-.69-.74-1.44-1.34-1.86-6.31-4.4-6.69-10.73-6.58-17.69.23-14.76-.12-29.54-.21-44.3,0-1.64.17-3.27.26-5.03h244.86ZM563.11,137.47c-.05-14.27-11.51-25.12-26.53-25.12-15.35,0-26.02,11.04-25.89,26.81.12,15.27,10.51,25.39,25.9,25.25,15.4-.14,26.57-11.5,26.52-26.94ZM473.45,164.02c15.33-.07,26.44-11.01,26.41-25.99-.03-14.29-11.74-25.9-26.05-25.82-14.13.08-25.5,11.92-25.45,26.49.06,14.95,10.4,25.39,25.09,25.31ZM386.92,138.65c-.18,14.18,10.27,24.97,24.42,25.21,15.53.26,26.73-10.43,26.99-25.77.22-12.97-11.93-25.77-24.57-25.89-15.66-.15-26.63,10.66-26.84,26.45Z"/>
      <path class="cls-1" d="M538.67,188c-2.25,7-4.26,13.45-6.47,19.82-.27.78-1.56,1.42-2.5,1.71-.94.29-2.04.07-3.06.07-122.97,0-245.95-.02-368.92.09-3.83,0-5.8-.88-6.76-4.76-1.4-5.68-3.38-11.21-5.21-17.1h75.82c.73,1.78,1.3,3.6,2.19,5.26,4.83,9.04,15.55,10.39,22.5,2.87.87-.94,1.89-1.9,2.32-3.05,1.9-5.08,5.59-5.77,10.59-5.73,30.32.24,60.65.15,90.98.06,2.7,0,4.3.65,5.85,3.09,6.43,10.12,21.02,9.95,27.35-.17,1.66-2.65,3.66-2.9,6.73-2.82,14.1.36,28.21.14,42.32.2,33.92.13,67.84.3,101.76.45,1.25,0,2.5,0,4.53,0Z"/>
      <path class="cls-1" d="M145.96,88.43c2.22-6.8,4.32-13.33,6.54-19.83.17-.51,1.11-.95,1.76-1.07,1-.18,2.05-.06,3.08-.06,123.24,0,246.47.02,369.71-.08,3.5,0,5.29.76,6.17,4.37,1.34,5.45,3.29,10.75,5.15,16.67-1.83.1-3.17.25-4.52.25-48.06.05-96.12.07-144.18.17-3.97,0-6.85-.84-9.38-4.47-4.41-6.32-15.55-5.85-20.55.72-2.32,3.05-4.87,4.03-8.5,4.01-15.03-.1-30.07-.06-45.1.09-3.18.03-5.14-.8-6.61-3.9-3.01-6.32-8.57-9.08-15.38-8.98-6.67.1-10.98,3.84-13.28,9.92-.67,1.77-1.45,2.64-3.53,2.64-39.58-.07-79.16-.05-118.74-.07-.61,0-1.22-.17-2.64-.39Z"/>
      <path class="cls-1" d="M190.07,173.84h-37.28v-71.7c1.53,0,2.9,0,4.28,0,35.71.13,71.41.24,107.12.39,9.32.04,12.73,3.5,12.73,12.84,0,18.37,0,36.73,0,55.1v4.16c-8.9,0-17.47.1-26.03-.1-1.29-.03-2.77-1.23-3.78-2.26-6.1-6.22-11.39-6.75-18.25-1.46-3.9,3.01-8.39,3.63-13.07,3.73-1.15.02-2.31-.09-3.46-.18-9.12-.76-8.71-.77-9.01-9.79-.2-5.91,1.45-10.07,5.97-14.03,6.77-5.94,5.6-18.31-1.67-24.76-6.06-5.38-16.53-6.32-22.99-2.08-7.01,4.61-9.98,13.93-7.01,22.15,1.5,4.16,4.15,7.53,8.28,9.15,3.86,1.52,4.78,3.91,4.25,7.82-.47,3.51-.1,7.13-.1,11.03ZM228.04,138.92c.26,11.18,7.23,18.25,17.72,17.97,10.11-.26,18.57-8.55,18.31-17.93-.3-10.88-8.53-18.6-19.56-18.34-9.23.22-16.7,8.51-16.47,18.29Z"/>
      <path class="cls-1" d="M362.5,101.98c0,10.79-.02,21.04,0,31.28.02,8.21-.05,16.43.2,24.64.1,3.3-.97,5.72-2.92,8.34-4.59,6.17-9.85,9-18.05,8.63-17.02-.78-34.11-.24-51.72-.24v-4.25c0-18.48.05-36.97-.06-55.45-.02-2.68,1.01-4.33,2.71-6.31,4.65-5.41,10.12-7.06,17.23-6.81,15.77.54,31.57.17,47.36.17,1.39,0,2.78,0,5.24,0ZM324.98,162.31c15.15.06,25.98-9.86,26.04-23.85.07-14.44-10.88-25.01-25.93-25.03-13.18-.02-24.14,10.47-24.27,23.23-.16,15.85,9.03,25.6,24.16,25.66Z"/>
      <path class="cls-1" d="M655.06,194.42c-3.09-.3-6.12-.58-9.37-.9-.11-7.71-6.19-8.24-11.96-9.93v-3.55c0-27.49.04-54.98-.07-82.47-.01-2.88.6-4.43,3.62-5.12,4.57-1.05,7.67-4.01,8.99-8.64,2.92-.34,5.69-.66,8.79-1.02v111.63Z"/>
      <path class="cls-1" d="M55.85,102.62h21.93v71.13h-21.93v-71.13Z"/>
      <path class="cls-1" d="M139.05,173.79h-21.53v-71.43h21.53v71.43Z"/>
      <path class="cls-1" d="M0,102.28h41.61v71.34H0v-71.34Z"/>
      <path class="cls-1" d="M111.08,37.58c-10.95-.14-19.69-8.71-19.48-19.12C91.8,8.41,100.75.53,111.06.02c8.58-.43,19.32,8.4,19.17,20.02-.13,9.92-8.71,17.67-19.15,17.54Z"/>
      <path class="cls-1" d="M91.61,102.36h12.68v71.33h-12.68v-71.33Z"/>
      <path class="cls-1" d="M550.75,138.99c.04,7.48-5.81,13.31-13.39,13.36-8.33.06-15.04-6.06-15.09-13.75-.05-7.4,6.21-13.9,13.56-14.06,7.86-.17,14.88,6.63,14.92,14.45Z"/>
      <path class="cls-1" d="M460.38,138.21c.02-7.05,6.28-13.63,13.01-13.68,7.85-.06,14.7,6.69,14.61,14.38-.08,7.07-6.68,13.45-13.81,13.36-7.84-.1-13.83-6.2-13.81-14.05Z"/>
      <path class="cls-1" d="M411.64,124.57c7.97-.05,14.83,6.46,14.86,14.11.03,7.3-6.45,13.65-13.85,13.58-7.35-.06-13.32-6.14-13.34-13.59-.02-8.37,4.95-14.06,12.34-14.11Z"/>
      <path class="cls-1" d="M338.63,138.36c-.03,7.37-5.88,13.17-13.24,13.11-6.64-.06-12.59-6.18-12.67-13.04-.09-7.44,5.48-13.24,12.62-13.13,7.54.11,13.31,5.79,13.28,13.06Z"/>
    </g>
  </g>
</svg>