<?xml version="1.0" encoding="UTF-8"?>
<svg id="Layer_2" data-name="Layer 2" xmlns="http://www.w3.org/2000/svg" viewBox="0 0 542.01 296.84">
  <defs>
    <style>
      .cls-1 {
        fill: #fff;
      }
    </style>
  </defs>
  <g id="Capa_1" data-name="Capa 1">
    <g>
      <g>
        <path class="cls-1" d="M451.75,63.44v44.48c-.96,0-1.8,0-2.65,0-37.44.1-74.87.21-112.31.31-9.32.03-18.64,0-27.96.09-1.86.02-3.28-.35-4.06-2.17-.18-.43-.46-.89-.83-1.15-3.91-2.73-4.15-6.66-4.08-10.97.14-9.16-.08-18.32-.13-27.48,0-1.01.1-2.03.16-3.12h151.85ZM416.3,85.25c-.03-8.85-7.14-15.58-16.45-15.58-9.52,0-16.14,6.85-16.06,16.63.08,9.47,6.52,15.75,16.06,15.66,9.55-.09,16.48-7.13,16.45-16.71ZM360.7,101.72c9.51-.05,16.4-6.83,16.38-16.12-.02-8.87-7.28-16.06-16.16-16.01-8.76.05-15.82,7.39-15.78,16.43.04,9.27,6.45,15.74,15.56,15.7ZM307.04,85.99c-.11,8.79,6.37,15.49,15.15,15.63,9.63.16,16.58-6.47,16.74-15.98.14-8.04-7.4-15.98-15.24-16.06-9.71-.09-16.52,6.61-16.64,16.4Z"/>
        <path class="cls-1" d="M401.15,116.59c-1.4,4.34-2.64,8.34-4.01,12.29-.17.49-.97.88-1.55,1.06-.58.18-1.26.05-1.9.05-76.26,0-152.53-.01-228.79.06-2.37,0-3.6-.54-4.19-2.95-.87-3.52-2.1-6.95-3.23-10.6h47.02c.45,1.1.81,2.24,1.36,3.26,2.99,5.6,9.64,6.44,13.95,1.78.54-.58,1.17-1.18,1.44-1.89,1.18-3.15,3.47-3.58,6.57-3.55,18.81.15,37.61.09,56.42.04,1.68,0,2.67.4,3.63,1.91,3.99,6.27,13.04,6.17,16.96-.11,1.03-1.65,2.27-1.8,4.17-1.75,8.74.23,17.49.09,26.24.12,21.04.08,42.07.19,63.11.28.77,0,1.55,0,2.81,0Z"/>
        <path class="cls-1" d="M157.6,54.84c1.38-4.22,2.68-8.27,4.05-12.3.11-.32.69-.59,1.09-.66.62-.11,1.27-.04,1.91-.04,76.43,0,152.85,0,229.28-.05,2.17,0,3.28.47,3.83,2.71.83,3.38,2.04,6.67,3.19,10.34-1.14.06-1.97.15-2.8.15-29.81.03-59.61.04-89.42.11-2.46,0-4.25-.52-5.81-2.77-2.73-3.92-9.64-3.63-12.74.45-1.44,1.89-3.02,2.5-5.27,2.49-9.32-.06-18.65-.04-27.97.06-1.97.02-3.19-.49-4.1-2.42-1.86-3.92-5.32-5.63-9.54-5.57-4.13.06-6.81,2.38-8.24,6.15-.42,1.1-.9,1.64-2.19,1.64-24.55-.04-49.09-.03-73.64-.04-.38,0-.76-.11-1.64-.24Z"/>
        <path class="cls-1" d="M184.96,107.81h-23.12v-44.46c.95,0,1.8,0,2.65,0,22.14.08,44.29.15,66.43.24,5.78.02,7.89,2.17,7.89,7.96,0,11.39,0,22.78,0,34.17v2.58c-5.52,0-10.83.06-16.14-.06-.8-.02-1.72-.76-2.34-1.4-3.78-3.86-7.06-4.19-11.32-.91-2.42,1.86-5.2,2.25-8.1,2.32-.71.02-1.43-.05-2.15-.11-5.65-.47-5.4-.48-5.59-6.07-.12-3.67.9-6.24,3.7-8.7,4.2-3.69,3.47-11.36-1.03-15.36-3.76-3.33-10.25-3.92-14.25-1.29-4.34,2.86-6.19,8.64-4.35,13.73.93,2.58,2.57,4.67,5.14,5.68,2.39.94,2.97,2.42,2.64,4.85-.29,2.18-.06,4.42-.06,6.84ZM208.51,86.15c.16,6.93,4.48,11.32,10.99,11.15,6.27-.16,11.52-5.3,11.36-11.12-.19-6.75-5.29-11.53-12.13-11.37-5.72.13-10.35,5.28-10.22,11.34Z"/>
        <path class="cls-1" d="M291.9,63.25c0,6.69-.01,13.05,0,19.4.01,5.09-.03,10.19.12,15.28.06,2.04-.6,3.55-1.81,5.17-2.84,3.83-6.11,5.58-11.19,5.35-10.56-.49-21.15-.15-32.07-.15v-2.64c0-11.46.03-22.92-.04-34.39-.01-1.66.62-2.69,1.68-3.91,2.88-3.35,6.28-4.38,10.69-4.23,9.78.33,19.58.1,29.37.1.86,0,1.73,0,3.25,0ZM268.63,100.66c9.4.04,16.11-6.11,16.15-14.79.04-8.95-6.75-15.51-16.08-15.53-8.17-.01-14.97,6.49-15.05,14.4-.1,9.83,5.6,15.88,14.98,15.91Z"/>
        <path class="cls-1" d="M473.33,120.57c-1.92-.18-3.8-.36-5.81-.56-.07-4.78-3.84-5.11-7.42-6.16v-2.2c0-17.05.03-34.1-.04-51.14,0-1.78.37-2.75,2.24-3.18,2.84-.65,4.76-2.49,5.58-5.36,1.81-.21,3.53-.41,5.45-.64v69.23Z"/>
        <path class="cls-1" d="M101.73,63.64h13.6v44.11h-13.6v-44.11Z"/>
        <path class="cls-1" d="M153.32,107.78h-13.35v-44.3h13.35v44.3Z"/>
        <path class="cls-1" d="M67.09,63.43h25.8v44.24h-25.8v-44.24Z"/>
        <path class="cls-1" d="M135.98,23.3c-6.79-.08-12.21-5.4-12.08-11.86.12-6.23,5.68-11.12,12.07-11.44,5.32-.27,11.98,5.21,11.89,12.42-.08,6.15-5.4,10.96-11.88,10.88Z"/>
        <path class="cls-1" d="M123.9,63.48h7.86v44.23h-7.86v-44.23Z"/>
        <path class="cls-1" d="M408.64,86.19c.02,4.64-3.6,8.25-8.3,8.29-5.17.04-9.33-3.76-9.36-8.53-.03-4.59,3.85-8.62,8.41-8.72,4.87-.11,9.23,4.11,9.25,8.96Z"/>
        <path class="cls-1" d="M352.6,85.72c.01-4.37,3.89-8.46,8.07-8.49,4.87-.04,9.12,4.15,9.06,8.92-.05,4.38-4.14,8.34-8.56,8.28-4.86-.06-8.58-3.85-8.57-8.72Z"/>
        <path class="cls-1" d="M322.37,77.25c4.94-.03,9.2,4.01,9.21,8.75.02,4.52-4,8.46-8.59,8.42-4.56-.04-8.26-3.81-8.27-8.43-.02-5.19,3.07-8.72,7.65-8.75Z"/>
        <path class="cls-1" d="M277.09,85.8c-.02,4.57-3.65,8.17-8.21,8.13-4.12-.04-7.81-3.83-7.86-8.09-.05-4.61,3.4-8.21,7.83-8.14,4.67.07,8.25,3.59,8.24,8.1Z"/>
      </g>
      <g>
        <path class="cls-1" d="M36.22,204.93c5.96,0,11.59,1.87,16.2,5.36.92.83,2.12,1.24,3.38,1.15,1.37-.1,2.66-.77,3.53-1.84.86-1.03,1.24-2.31,1.09-3.63-.16-1.35-.89-2.6-1.98-3.42-6.34-4.98-14.02-7.61-22.23-7.61-19.97,0-36.22,16.25-36.22,36.22s16.25,36.37,36.22,36.37c8.2,0,15.89-2.63,22.21-7.6,1.14-.86,1.87-2.17,2.01-3.59.12-1.32-.28-2.56-1.07-3.43-.81-1.08-2-1.77-3.34-1.93-1.29-.16-2.59.21-3.54,1-4.81,3.64-10.43,5.57-16.27,5.57-14.46,0-26.23-11.83-26.23-26.38s11.77-26.23,26.23-26.23Z"/>
        <path class="cls-1" d="M102.08,257.1c-14.24,0-22.09-8.47-22.09-23.86v-66.89c0-2.58-2.33-4.85-5-4.85-2.8,0-5,2.13-5,4.85v66.89c0,20.88,12.29,33.85,32.08,33.85,2.72,0,4.85-2.19,4.85-5s-2.13-5-4.85-5Z"/>
        <path class="cls-1" d="M145.74,195.38c-19.89,0-36.07,16.18-36.07,36.07s16.18,36.08,36.07,36.08c9.89,0,19.48-4.74,26.67-13.11v7.97c0,2.72,2.06,4.85,4.7,4.85s4.7-2.13,4.7-4.85v-30.93c0-19.89-16.18-36.07-36.08-36.07ZM145.74,257.54c-14.46,0-26.23-11.7-26.23-26.08s11.77-26.23,26.23-26.23,26.23,11.77,26.23,26.23-11.77,26.08-26.23,26.08Z"/>
        <path class="cls-1" d="M223.15,194.94c-17.28,0-31.34,14.06-31.34,31.34v35.81c0,2.75,2.24,5,5,5s5-2.24,5-5v-35.81c0-11.69,9.58-21.2,21.35-21.2,9.07,0,17.13,5.74,20.07,14.26.89,2.67,3.58,4.06,6.46,3.29,1.25-.45,2.25-1.37,2.81-2.6.55-1.2.6-2.56.17-3.69-4.27-12.8-16.13-21.4-29.51-21.4Z"/>
        <path class="cls-1" d="M267.25,195.24c-2.85,0-5,2.15-5,5v61.86c0,2.85,2.15,5,5,5s5-2.29,5-5v-61.86c0-2.71-2.29-5-5-5Z"/>
        <path class="cls-1" d="M267.25,173.33c-3.8,0-6.77,2.97-6.77,6.77s2.97,6.92,6.77,6.92,6.77-3.04,6.77-6.92-2.97-6.77-6.77-6.77Z"/>
        <path class="cls-1" d="M321.12,195.09c-19.89,0-36.08,16.18-36.08,36.07v60.83c0,2.72,2.06,4.85,4.7,4.85s4.7-2.17,4.7-4.85v-36.49c6.78,7.4,16.56,11.74,26.68,11.74,19.89,0,36.07-16.18,36.07-36.08s-16.18-36.07-36.07-36.07ZM321.12,257.39c-14.46,0-26.23-11.77-26.23-26.23s11.77-26.23,26.23-26.23,26.08,11.77,26.08,26.23-11.7,26.23-26.08,26.23Z"/>
        <path class="cls-1" d="M395.56,257.1c-14.24,0-22.09-8.47-22.09-23.86v-66.89c0-2.58-2.33-4.85-5-4.85-2.8,0-5,2.13-5,4.85v66.89c0,20.88,12.29,33.85,32.08,33.85,2.72,0,4.85-2.19,4.85-5s-2.13-5-4.85-5Z"/>
        <path class="cls-1" d="M439.22,195.38c-19.89,0-36.07,16.18-36.07,36.07s16.18,36.08,36.07,36.08c9.89,0,19.48-4.74,26.67-13.11v7.97c0,2.72,2.06,4.85,4.7,4.85s4.7-2.13,4.7-4.85v-30.93c0-19.89-16.18-36.07-36.08-36.07ZM439.22,257.54c-14.46,0-26.23-11.7-26.23-26.08s11.77-26.23,26.23-26.23,26.23,11.77,26.23,26.23-11.77,26.08-26.23,26.08Z"/>
        <path class="cls-1" d="M541.67,198.65c-.46-1.19-1.36-2.14-2.42-2.58-2.63-1.23-5.49-.23-6.82,2.43l-22.48,51.65-23.23-51.87c-1.34-2.48-4.2-3.42-6.57-2.23-1.11.43-2,1.31-2.5,2.5-.56,1.32-.55,2.84.02,4.18l26.9,59.98-9.73,22.51c-.53,1.16-.58,2.54-.13,3.81.46,1.27,1.38,2.31,2.51,2.83.8.4,1.43.4,2.22.4,1.96,0,3.76-1.2,4.47-2.97l37.59-86.56c.61-1.31.67-2.76.16-4.06Z"/>
      </g>
    </g>
  </g>
</svg>